ply
format ascii 1.0
comment Created in Blender version 4.2.3 LTS
element vertex 130
property float x
property float y
property float z
property float nx
property float ny
property float nz
property float s
property float t
element face 34
property list uchar uint vertex_indices
end_header
-2 0.2 8.742278e-08 -4.2219157e-09 0.9951847 -0.09801729 1 0.5
2 0.2 -8.742278e-08 -4.2219157e-09 0.9951847 -0.09801729 1 1
2 0.19615705 -0.03901815 -8.274901e-09 0.98078537 -0.1950904 0.96875 1
-2 0.19615705 -0.03901798 -8.2749e-09 0.9807853 -0.19509037 0.96875 0.5
2 0.1847759 -0.07653678 -1.6969377e-08 0.9238795 -0.3826835 0.9375 1
-2 0.1847759 -0.0765366 -1.6969375e-08 0.9238795 -0.38268346 0.9375 0.5
2 0.16629392 -0.11111414 -2.4987875e-08 0.83146966 -0.5555702 0.90625 1
-2 0.16629392 -0.11111396 -2.4987873e-08 0.8314697 -0.5555701 0.90625 0.5
2 0.14142136 -0.14142145 -3.0582175e-08 0.7071068 -0.7071068 0.875 1
-2 0.14142136 -0.14142127 -3.0582175e-08 0.7071068 -0.7071068 0.875 0.5
2 0.11111405 -0.16629401 -3.7295333e-08 0.5555702 -0.83146966 0.84375 1
-2 0.11111405 -0.16629383 -3.7295333e-08 0.5555702 -0.83146966 0.84375 0.5
2 0.07653669 -0.184776 -4.177077e-08 0.38268346 -0.9238795 0.8125 1
-2 0.07653669 -0.18477581 -4.177077e-08 0.38268346 -0.9238795 0.8125 0.5
2 0.039018065 -0.19615714 -4.326258e-08 0.1950904 -0.98078537 0.78125 1
-2 0.039018065 -0.19615696 -4.326258e-08 0.1950904 -0.98078537 0.78125 0.5
2 0 -0.20000009 -4.4754398e-08 0 -1 0.75 1
-2 0 -0.19999991 -4.4754398e-08 0 -1 0.75 0.5
2 -0.039018065 -0.19615714 -4.326258e-08 -0.1950904 -0.98078537 0.71875 1
-2 -0.039018065 -0.19615696 -4.326258e-08 -0.1950904 -0.98078537 0.71875 0.5
2 -0.07653669 -0.184776 -4.177077e-08 -0.38268346 -0.9238795 0.6875 1
-2 -0.07653669 -0.18477581 -4.177077e-08 -0.38268346 -0.9238795 0.6875 0.5
2 -0.11111405 -0.16629401 -3.7295333e-08 -0.5555702 -0.83146966 0.65625 1
-2 -0.11111405 -0.16629383 -3.7295333e-08 -0.5555702 -0.83146966 0.65625 0.5
2 -0.14142136 -0.14142145 -3.0582175e-08 -0.7071068 -0.7071068 0.625 1
-2 -0.14142136 -0.14142127 -3.0582175e-08 -0.7071068 -0.7071068 0.625 0.5
2 -0.16629392 -0.11111414 -2.4987875e-08 -0.83146966 -0.5555702 0.59375 1
-2 -0.16629392 -0.11111396 -2.4987873e-08 -0.8314697 -0.5555701 0.59375 0.5
2 -0.1847759 -0.07653678 -1.6969377e-08 -0.9238795 -0.3826835 0.5625 1
-2 -0.1847759 -0.0765366 -1.6969375e-08 -0.9238795 -0.38268346 0.5625 0.5
2 -0.19615705 -0.03901815 -8.274901e-09 -0.98078537 -0.1950904 0.53125 1
-2 -0.19615705 -0.03901798 -8.2749e-09 -0.9807853 -0.19509037 0.53125 0.5
2 -0.2 -8.742278e-08 -2.8408392e-16 -1 -9.5322745e-09 0.5 1
-2 -0.2 8.742278e-08 2.8408392e-16 -1 9.5322745e-09 0.5 0.5
2 -0.19615705 0.03901798 8.2749e-09 -0.9807853 0.19509037 0.46875 1
-2 -0.19615705 0.03901815 8.274901e-09 -0.98078537 0.1950904 0.46875 0.5
2 -0.1847759 0.0765366 1.6969375e-08 -0.9238795 0.38268346 0.4375 1
-2 -0.1847759 0.07653678 1.6969377e-08 -0.9238795 0.3826835 0.4375 0.5
2 -0.16629392 0.11111396 2.4987873e-08 -0.8314697 0.5555701 0.40625 1
-2 -0.16629392 0.11111414 2.4987875e-08 -0.83146966 0.5555702 0.40625 0.5
2 -0.14142136 0.14142127 3.0582175e-08 -0.7071068 0.7071068 0.375 1
-2 -0.14142136 0.14142145 3.0582175e-08 -0.7071068 0.7071068 0.375 0.5
2 -0.11111405 0.16629383 3.7295333e-08 -0.5555702 0.83146966 0.34375 1
-2 -0.11111405 0.16629401 3.7295333e-08 -0.5555702 0.83146966 0.34375 0.5
2 -0.07653669 0.18477581 4.177077e-08 -0.38268346 0.9238795 0.3125 1
-2 -0.07653669 0.184776 4.177077e-08 -0.38268346 0.9238795 0.3125 0.5
2 -0.039018065 0.19615696 4.326258e-08 -0.1950904 0.98078537 0.28125 1
-2 -0.039018065 0.19615714 4.326258e-08 -0.1950904 0.98078537 0.28125 0.5
2 0 0.19999991 4.4754398e-08 0 1 0.25 1
-2 0 0.20000009 4.4754398e-08 0 1 0.25 0.5
2 0.039018065 0.19615696 4.326258e-08 0.1950904 0.98078537 0.21875 1
-2 0.039018065 0.19615714 4.326258e-08 0.1950904 0.98078537 0.21875 0.5
2 0.07653669 0.18477581 4.177077e-08 0.38268346 0.9238795 0.1875 1
-2 0.07653669 0.184776 4.177077e-08 0.38268346 0.9238795 0.1875 0.5
2 0.11111405 0.16629383 3.7295333e-08 0.5555702 0.83146966 0.15625 1
-2 0.11111405 0.16629401 3.7295333e-08 0.5555702 0.83146966 0.15625 0.5
2 0.14142136 0.14142127 3.0582175e-08 0.7071068 0.7071068 0.125 1
-2 0.14142136 0.14142145 3.0582175e-08 0.7071068 0.7071068 0.125 0.5
2 0.16629392 0.11111396 2.4987873e-08 0.8314697 0.5555701 0.09375 1
-2 0.16629392 0.11111414 2.4987875e-08 0.83146966 0.5555702 0.09375 0.5
2 0.1847759 0.0765366 1.6969375e-08 0.9238795 0.38268346 0.0625 1
-2 0.1847759 0.07653678 1.6969377e-08 0.9238795 0.3826835 0.0625 0.5
2 0.19615705 -0.03901815 1 -1.1934506e-07 0 0.29682168 0.48538846
2 0.2 -8.742278e-08 1 -1.1934506e-07 0 0.25 0.49
2 0.19615705 0.03901798 1 -1.1934506e-07 0 0.20317832 0.48538846
2 0.1847759 0.0765366 1 -1.1934506e-07 0 0.15815598 0.47173107
2 0.16629392 0.11111396 1 -1.1934506e-07 0 0.11666316 0.44955269
2 0.14142136 0.14142127 1 -1.1934506e-07 0 0.08029437 0.41970563
2 0.11111405 0.16629383 1 -1.1934506e-07 0 0.050447315 0.38333684
2 0.07653669 0.18477581 1 -1.1934506e-07 0 0.028268933 0.34184402
2 0.039018065 0.19615696 1 -1.1934506e-07 0 0.014611557 0.29682168
2 0 0.19999991 1 -1.1934506e-07 0 0.010000005 0.25
2 -0.039018065 0.19615696 1 -1.1934506e-07 0 0.014611557 0.20317832
2 -0.07653669 0.18477581 1 -1.1934506e-07 0 0.028268933 0.15815598
2 -0.11111405 0.16629383 1 -1.1934506e-07 0 0.050447315 0.11666316
2 -0.14142136 0.14142127 1 -1.1934506e-07 0 0.08029437 0.08029437
2 -0.16629392 0.11111396 1 -1.1934506e-07 0 0.11666316 0.050447315
2 -0.1847759 0.0765366 1 -1.1934506e-07 0 0.15815598 0.028268933
2 -0.19615705 0.03901798 1 -1.1934506e-07 0 0.20317832 0.014611557
2 -0.2 -8.742278e-08 1 -1.1934506e-07 0 0.25 0.010000005
2 -0.19615705 -0.03901815 1 -1.1934506e-07 0 0.29682168 0.014611557
2 -0.1847759 -0.07653678 1 -1.1934506e-07 0 0.34184402 0.028268933
2 -0.16629392 -0.11111414 1 -1.1934506e-07 0 0.38333684 0.050447315
2 -0.14142136 -0.14142145 1 -1.1934506e-07 0 0.41970563 0.08029437
2 -0.11111405 -0.16629401 1 -1.1934506e-07 0 0.44955269 0.11666316
2 -0.07653669 -0.184776 1 -1.1934506e-07 0 0.47173107 0.15815598
2 -0.039018065 -0.19615714 1 -1.1934506e-07 0 0.48538846 0.20317832
2 0 -0.20000009 1 -1.1934506e-07 0 0.49 0.25
2 0.039018065 -0.19615714 1 -1.1934506e-07 0 0.48538846 0.29682168
2 0.07653669 -0.184776 1 -1.1934506e-07 0 0.47173107 0.34184402
2 0.11111405 -0.16629401 1 -1.1934506e-07 0 0.44955269 0.38333684
2 0.14142136 -0.14142145 1 -1.1934506e-07 0 0.41970563 0.41970563
2 0.16629392 -0.11111414 1 -1.1934506e-07 0 0.38333684 0.44955269
2 0.1847759 -0.07653678 1 -1.1934506e-07 0 0.34184402 0.47173107
2 0.19615705 0.03901798 8.2749e-09 0.9807853 0.19509037 0.03125 1
-2 0.19615705 0.03901815 8.274901e-09 0.98078537 0.1950904 0.03125 0.5
2 0.2 -8.742278e-08 4.2219157e-09 0.9951847 0.09801729 0 1
-2 0.2 8.742278e-08 4.2219157e-09 0.9951847 0.09801729 0 0.5
-2 0.2 8.742278e-08 -1 4.177077e-07 0 0.75 0.49
-2 0.19615705 -0.03901798 -1 4.177077e-07 0 0.79682165 0.48538846
-2 0.1847759 -0.0765366 -1 4.177077e-07 0 0.841844 0.47173107
-2 0.16629392 -0.11111396 -1 4.1770772e-07 0 0.88333684 0.44955269
-2 0.14142136 -0.14142127 -1 4.177077e-07 0 0.9197056 0.41970563
-2 0.11111405 -0.16629383 -1 4.1770772e-07 0 0.94955266 0.38333684
-2 0.07653669 -0.18477581 -1 4.177077e-07 0 0.97173107 0.34184402
-2 0.039018065 -0.19615696 -1 4.177077e-07 0 0.98538846 0.29682168
-2 0 -0.19999991 -1 4.177077e-07 0 0.99 0.25
-2 -0.039018065 -0.19615696 -1 4.177077e-07 0 0.98538846 0.20317832
-2 -0.07653669 -0.18477581 -1 4.177077e-07 0 0.97173107 0.15815598
-2 -0.11111405 -0.16629383 -1 4.1770772e-07 0 0.94955266 0.11666316
-2 -0.14142136 -0.14142127 -1 4.177077e-07 0 0.9197056 0.08029437
-2 -0.16629392 -0.11111396 -1 4.1770772e-07 0 0.88333684 0.050447315
-2 -0.1847759 -0.0765366 -1 4.177077e-07 0 0.841844 0.028268933
-2 -0.19615705 -0.03901798 -1 4.177077e-07 0 0.79682165 0.014611557
-2 -0.2 8.742278e-08 -1 4.177077e-07 0 0.75 0.010000005
-2 -0.19615705 0.03901815 -1 4.177077e-07 0 0.70317835 0.014611557
-2 -0.1847759 0.07653678 -1 4.1770772e-07 0 0.658156 0.028268933
-2 -0.16629392 0.11111414 -1 4.1770772e-07 0 0.61666316 0.050447315
-2 -0.14142136 0.14142145 -1 4.177077e-07 0 0.5802944 0.08029437
-2 -0.11111405 0.16629401 -1 4.1770772e-07 0 0.55044734 0.11666316
-2 -0.07653669 0.184776 -1 4.177077e-07 0 0.52826893 0.15815598
-2 -0.039018065 0.19615714 -1 4.177077e-07 0 0.51461154 0.20317832
-2 0 0.20000009 -1 4.177077e-07 0 0.51 0.25
-2 0.039018065 0.19615714 -1 4.177077e-07 0 0.51461154 0.29682168
-2 0.07653669 0.184776 -1 4.177077e-07 0 0.52826893 0.34184402
-2 0.11111405 0.16629401 -1 4.1770772e-07 0 0.55044734 0.38333684
-2 0.14142136 0.14142145 -1 4.177077e-07 0 0.5802944 0.41970563
-2 0.16629392 0.11111414 -1 4.1770772e-07 0 0.61666316 0.44955269
-2 0.1847759 0.07653678 -1 4.1770772e-07 0 0.658156 0.47173107
-2 0.19615705 0.03901815 -1 4.177077e-07 0 0.70317835 0.48538846
4 0 1 2 3
4 3 2 4 5
4 5 4 6 7
4 7 6 8 9
4 9 8 10 11
4 11 10 12 13
4 13 12 14 15
4 15 14 16 17
4 17 16 18 19
4 19 18 20 21
4 21 20 22 23
4 23 22 24 25
4 25 24 26 27
4 27 26 28 29
4 29 28 30 31
4 31 30 32 33
4 33 32 34 35
4 35 34 36 37
4 37 36 38 39
4 39 38 40 41
4 41 40 42 43
4 43 42 44 45
4 45 44 46 47
4 47 46 48 49
4 49 48 50 51
4 51 50 52 53
4 53 52 54 55
4 55 54 56 57
4 57 56 58 59
4 59 58 60 61
32 62 63 64 65 66 67 68 69 70 71 72 73 74 75 76 77 78 79 80 81 82 83 84 85 86 87 88 89 90 91 92 93
4 61 60 94 95
4 95 94 96 97
32 98 99 100 101 102 103 104 105 106 107 108 109 110 111 112 113 114 115 116 117 118 119 120 121 122 123 124 125 126 127 128 129
