ply
format ascii 1.0
comment Created in Blender version 4.2.3 LTS
element vertex 130
property float x
property float y
property float z
property float nx
property float ny
property float nz
property float s
property float t
element face 34
property list uchar uint vertex_indices
end_header
-1161.235 55.378 5.0759194e-05 -0.6857015 0.72788286 -7.495619e-08 1 0.5
1161.235 55.378 -5.0759194e-05 0.6857015 0.72788286 -4.844368e-07 1 1
1161.235 54.313923 -10.803762 0.68570155 0.71389663 -0.14200343 0.96875 1
-1161.235 54.313923 -10.803661 -0.6857016 0.7138967 -0.14200303 0.96875 0.5
1161.235 51.162598 -21.192295 0.68570143 0.672476 -0.27854913 0.9375 1
-1161.235 51.162598 -21.192192 -0.6857015 0.67247605 -0.27854872 0.9375 0.5
1161.235 46.04512 -30.76642 0.6857015 0.6052123 -0.40439036 0.90625 1
-1161.235 46.04512 -30.766317 -0.6857016 0.6052124 -0.40439007 0.90625 0.5
1161.235 39.158157 -39.158207 0.6857015 0.51469064 -0.51469123 0.875 1
-1161.235 39.158157 -39.158108 -0.6857016 0.51469076 -0.5146909 0.875 0.5
1161.235 30.766369 -46.04517 0.68570143 0.40438986 -0.60521275 0.84375 1
-1161.235 30.766369 -46.04507 -0.6857016 0.40439 -0.6052125 0.84375 0.5
1161.235 21.192244 -51.162647 0.6857013 0.27854863 -0.6724764 0.8125 1
-1161.235 21.192244 -51.162548 -0.6857015 0.2785487 -0.6724761 0.8125 0.5
1161.235 10.803712 -54.313972 0.6857014 0.14200288 -0.713897 0.78125 1
-1161.235 10.803712 -54.313873 -0.6857016 0.14200291 -0.7138967 0.78125 0.5
1161.235 0 -55.378048 0.6857012 0 -0.72788316 0.75 1
-1161.235 0 -55.37795 -0.6857015 0 -0.72788286 0.75 0.5
1161.235 -10.803712 -54.313972 0.6857014 -0.14200288 -0.713897 0.71875 1
-1161.235 -10.803712 -54.313873 -0.6857016 -0.14200291 -0.7138967 0.71875 0.5
1161.235 -21.192244 -51.162647 0.6857013 -0.27854863 -0.6724764 0.6875 1
-1161.235 -21.192244 -51.162548 -0.6857015 -0.2785487 -0.6724761 0.6875 0.5
1161.235 -30.766369 -46.04517 0.68570143 -0.40438986 -0.60521275 0.65625 1
-1161.235 -30.766369 -46.04507 -0.6857016 -0.40439 -0.6052125 0.65625 0.5
1161.235 -39.158157 -39.158207 0.6857015 -0.51469064 -0.51469123 0.625 1
-1161.235 -39.158157 -39.158108 -0.6857016 -0.51469076 -0.5146909 0.625 0.5
1161.235 -46.04512 -30.76642 0.6857015 -0.6052123 -0.40439036 0.59375 1
-1161.235 -46.04512 -30.766317 -0.6857016 -0.6052124 -0.40439007 0.59375 0.5
1161.235 -51.162598 -21.192295 0.68570143 -0.672476 -0.27854913 0.5625 1
-1161.235 -51.162598 -21.192192 -0.6857015 -0.67247605 -0.27854872 0.5625 0.5
1161.235 -54.313923 -10.803762 0.68570155 -0.71389663 -0.14200343 0.53125 1
-1161.235 -54.313923 -10.803661 -0.6857016 -0.7138967 -0.14200303 0.53125 0.5
1161.235 -55.378 -5.0759194e-05 0.6857015 -0.72788286 -4.846659e-07 0.5 1
-1161.235 -55.378 5.0759194e-05 -0.6857015 -0.72788286 -7.495619e-08 0.5 0.5
1161.235 -54.313923 10.803661 0.68570167 -0.71389675 0.14200248 0.46875 1
-1161.235 -54.313923 10.803762 -0.6857016 -0.7138967 0.14200287 0.46875 0.5
1161.235 -51.162598 21.192192 0.6857016 -0.6724762 0.27854824 0.4375 1
-1161.235 -51.162598 21.192295 -0.68570155 -0.6724761 0.2785486 0.4375 0.5
1161.235 -46.04512 30.766317 0.6857018 -0.6052125 0.40438962 0.40625 1
-1161.235 -46.04512 30.76642 -0.68570167 -0.60521245 0.40438995 0.40625 0.5
1161.235 -39.158157 39.158108 0.68570185 -0.51469094 0.5146905 0.375 1
-1161.235 -39.158157 39.158207 -0.68570167 -0.5146908 0.5146908 0.375 0.5
1161.235 -30.766369 46.04507 0.68570185 -0.40439013 0.60521215 0.34375 1
-1161.235 -30.766369 46.04517 -0.6857016 -0.40438998 0.6052124 0.34375 0.5
1161.235 -21.192244 51.162548 0.6857017 -0.2785488 0.6724758 0.3125 1
-1161.235 -21.192244 51.162647 -0.68570155 -0.27854872 0.67247605 0.3125 0.5
1161.235 -10.803712 54.313873 0.6857019 -0.14200297 0.7138964 0.28125 1
-1161.235 -10.803712 54.313972 -0.6857016 -0.14200294 0.7138967 0.28125 0.5
1161.235 0 55.37795 0.6857018 0 0.7278826 0.25 1
-1161.235 0 55.378048 -0.6857015 0 0.7278829 0.25 0.5
1161.235 10.803712 54.313873 0.6857019 0.14200297 0.7138964 0.21875 1
-1161.235 10.803712 54.313972 -0.6857016 0.14200294 0.7138967 0.21875 0.5
1161.235 21.192244 51.162548 0.6857017 0.2785488 0.6724758 0.1875 1
-1161.235 21.192244 51.162647 -0.68570155 0.27854872 0.67247605 0.1875 0.5
1161.235 30.766369 46.04507 0.68570185 0.40439013 0.60521215 0.15625 1
-1161.235 30.766369 46.04517 -0.6857016 0.40438998 0.6052124 0.15625 0.5
1161.235 39.158157 39.158108 0.68570185 0.51469094 0.5146905 0.125 1
-1161.235 39.158157 39.158207 -0.68570167 0.5146908 0.5146908 0.125 0.5
1161.235 46.04512 30.766317 0.6857018 0.6052125 0.40438962 0.09375 1
-1161.235 46.04512 30.76642 -0.68570167 0.60521245 0.40438995 0.09375 0.5
1161.235 51.162598 21.192192 0.6857016 0.6724762 0.27854824 0.0625 1
-1161.235 51.162598 21.192295 -0.68570155 0.6724761 0.2785486 0.0625 0.5
1161.235 54.313923 -10.803762 0.68570155 0.71389663 -0.14200343 0.29682168 0.48538846
1161.235 55.378 -5.0759194e-05 0.6857015 0.72788286 -4.844368e-07 0.25 0.49
1161.235 54.313923 10.803661 0.68570167 0.71389675 0.14200248 0.20317832 0.48538846
1161.235 51.162598 21.192192 0.6857016 0.6724762 0.27854824 0.15815598 0.47173107
1161.235 46.04512 30.766317 0.6857018 0.6052125 0.40438962 0.11666314 0.4495527
1161.235 39.158157 39.158108 0.68570185 0.51469094 0.5146905 0.080294386 0.41970563
1161.235 30.766369 46.04507 0.68570185 0.40439013 0.60521215 0.0504473 0.38333684
1161.235 21.192244 51.162548 0.6857017 0.2785488 0.6724758 0.028268918 0.34184402
1161.235 10.803712 54.313873 0.6857019 0.14200297 0.7138964 0.014611542 0.29682168
1161.235 0 55.37795 0.6857018 0 0.7278826 0.010000005 0.25
1161.235 -10.803712 54.313873 0.6857019 -0.14200297 0.7138964 0.014611542 0.20317832
1161.235 -21.192244 51.162548 0.6857017 -0.2785488 0.6724758 0.028268918 0.15815598
1161.235 -30.766369 46.04507 0.68570185 -0.40439013 0.60521215 0.0504473 0.11666314
1161.235 -39.158157 39.158108 0.68570185 -0.51469094 0.5146905 0.080294386 0.080294386
1161.235 -46.04512 30.766317 0.6857018 -0.6052125 0.40438962 0.11666314 0.0504473
1161.235 -51.162598 21.192192 0.6857016 -0.6724762 0.27854824 0.15815598 0.028268918
1161.235 -54.313923 10.803661 0.68570167 -0.71389675 0.14200248 0.20317832 0.014611542
1161.235 -55.378 -5.0759194e-05 0.6857015 -0.72788286 -4.846659e-07 0.25 0.010000005
1161.235 -54.313923 -10.803762 0.68570155 -0.71389663 -0.14200343 0.29682168 0.014611542
1161.235 -51.162598 -21.192295 0.68570143 -0.672476 -0.27854913 0.34184402 0.028268918
1161.235 -46.04512 -30.76642 0.6857015 -0.6052123 -0.40439036 0.38333684 0.0504473
1161.235 -39.158157 -39.158207 0.6857015 -0.51469064 -0.51469123 0.41970563 0.080294386
1161.235 -30.766369 -46.04517 0.68570143 -0.40438986 -0.60521275 0.4495527 0.11666314
1161.235 -21.192244 -51.162647 0.6857013 -0.27854863 -0.6724764 0.47173107 0.15815598
1161.235 -10.803712 -54.313972 0.6857014 -0.14200288 -0.713897 0.48538846 0.20317832
1161.235 0 -55.378048 0.6857012 0 -0.72788316 0.49 0.25
1161.235 10.803712 -54.313972 0.6857014 0.14200288 -0.713897 0.48538846 0.29682168
1161.235 21.192244 -51.162647 0.6857013 0.27854863 -0.6724764 0.47173107 0.34184402
1161.235 30.766369 -46.04517 0.68570143 0.40438986 -0.60521275 0.4495527 0.38333684
1161.235 39.158157 -39.158207 0.6857015 0.51469064 -0.51469123 0.41970563 0.41970563
1161.235 46.04512 -30.76642 0.6857015 0.6052123 -0.40439036 0.38333684 0.4495527
1161.235 51.162598 -21.192295 0.68570143 0.672476 -0.27854913 0.34184402 0.47173107
1161.235 54.313923 10.803661 0.68570167 0.71389675 0.14200248 0.03125 1
-1161.235 54.313923 10.803762 -0.6857016 0.7138967 0.14200287 0.03125 0.5
1161.235 55.378 -5.0759194e-05 0.6857015 0.72788286 -4.844368e-07 0 1
-1161.235 55.378 5.0759194e-05 -0.6857015 0.72788286 -7.495619e-08 0 0.5
-1161.235 55.378 5.0759194e-05 -0.6857015 0.72788286 -7.495619e-08 0.75 0.49
-1161.235 54.313923 -10.803661 -0.6857016 0.7138967 -0.14200303 0.79682165 0.48538846
-1161.235 51.162598 -21.192192 -0.6857015 0.67247605 -0.27854872 0.841844 0.47173107
-1161.235 46.04512 -30.766317 -0.6857016 0.6052124 -0.40439007 0.88333684 0.4495527
-1161.235 39.158157 -39.158108 -0.6857016 0.51469076 -0.5146909 0.9197056 0.41970563
-1161.235 30.766369 -46.04507 -0.6857016 0.40439 -0.6052125 0.9495527 0.38333684
-1161.235 21.192244 -51.162548 -0.6857015 0.2785487 -0.6724761 0.97173107 0.34184402
-1161.235 10.803712 -54.313873 -0.6857016 0.14200291 -0.7138967 0.98538846 0.29682168
-1161.235 0 -55.37795 -0.6857015 0 -0.72788286 0.99 0.25
-1161.235 -10.803712 -54.313873 -0.6857016 -0.14200291 -0.7138967 0.98538846 0.20317832
-1161.235 -21.192244 -51.162548 -0.6857015 -0.2785487 -0.6724761 0.97173107 0.15815598
-1161.235 -30.766369 -46.04507 -0.6857016 -0.40439 -0.6052125 0.9495527 0.11666314
-1161.235 -39.158157 -39.158108 -0.6857016 -0.51469076 -0.5146909 0.9197056 0.080294386
-1161.235 -46.04512 -30.766317 -0.6857016 -0.6052124 -0.40439007 0.88333684 0.0504473
-1161.235 -51.162598 -21.192192 -0.6857015 -0.67247605 -0.27854872 0.841844 0.028268918
-1161.235 -54.313923 -10.803661 -0.6857016 -0.7138967 -0.14200303 0.79682165 0.014611542
-1161.235 -55.378 5.0759194e-05 -0.6857015 -0.72788286 -7.495619e-08 0.75 0.010000005
-1161.235 -54.313923 10.803762 -0.6857016 -0.7138967 0.14200287 0.70317835 0.014611542
-1161.235 -51.162598 21.192295 -0.68570155 -0.6724761 0.2785486 0.658156 0.028268918
-1161.235 -46.04512 30.76642 -0.68570167 -0.60521245 0.40438995 0.61666316 0.0504473
-1161.235 -39.158157 39.158207 -0.68570167 -0.5146908 0.5146908 0.5802944 0.080294386
-1161.235 -30.766369 46.04517 -0.6857016 -0.40438998 0.6052124 0.5504473 0.11666314
-1161.235 -21.192244 51.162647 -0.68570155 -0.27854872 0.67247605 0.52826893 0.15815598
-1161.235 -10.803712 54.313972 -0.6857016 -0.14200294 0.7138967 0.51461154 0.20317832
-1161.235 0 55.378048 -0.6857015 0 0.7278829 0.51 0.25
-1161.235 10.803712 54.313972 -0.6857016 0.14200294 0.7138967 0.51461154 0.29682168
-1161.235 21.192244 51.162647 -0.68570155 0.27854872 0.67247605 0.52826893 0.34184402
-1161.235 30.766369 46.04517 -0.6857016 0.40438998 0.6052124 0.5504473 0.38333684
-1161.235 39.158157 39.158207 -0.68570167 0.5146908 0.5146908 0.5802944 0.41970563
-1161.235 46.04512 30.76642 -0.68570167 0.60521245 0.40438995 0.61666316 0.4495527
-1161.235 51.162598 21.192295 -0.68570155 0.6724761 0.2785486 0.658156 0.47173107
-1161.235 54.313923 10.803762 -0.6857016 0.7138967 0.14200287 0.70317835 0.48538846
4 0 1 2 3
4 3 2 4 5
4 5 4 6 7
4 7 6 8 9
4 9 8 10 11
4 11 10 12 13
4 13 12 14 15
4 15 14 16 17
4 17 16 18 19
4 19 18 20 21
4 21 20 22 23
4 23 22 24 25
4 25 24 26 27
4 27 26 28 29
4 29 28 30 31
4 31 30 32 33
4 33 32 34 35
4 35 34 36 37
4 37 36 38 39
4 39 38 40 41
4 41 40 42 43
4 43 42 44 45
4 45 44 46 47
4 47 46 48 49
4 49 48 50 51
4 51 50 52 53
4 53 52 54 55
4 55 54 56 57
4 57 56 58 59
4 59 58 60 61
32 62 63 64 65 66 67 68 69 70 71 72 73 74 75 76 77 78 79 80 81 82 83 84 85 86 87 88 89 90 91 92 93
4 61 60 94 95
4 95 94 96 97
32 98 99 100 101 102 103 104 105 106 107 108 109 110 111 112 113 114 115 116 117 118 119 120 121 122 123 124 125 126 127 128 129
