ply
format ascii 1.0
comment Created in Blender version 4.2.3 LTS
element vertex 130
property float x
property float y
property float z
property float nx
property float ny
property float nz
property float s
property float t
element face 34
property list uchar uint vertex_indices
end_header
-1500 125 0.00011457427 -7.4464457e-09 0.9951847 -0.09801737 1 0.5
1500 125 -0.00011457427 -7.4464457e-09 0.9951847 -0.09801737 1 1
1500 122.59815 -24.386383 -1.5004058e-08 0.98078525 -0.19509079 0.96875 1
-1500 122.59815 -24.386156 -1.5004057e-08 0.98078525 -0.19509076 0.96875 0.5
1500 115.48493 -47.835506 -2.9617048e-08 0.9238795 -0.38268378 0.9375 1
-1500 115.48493 -47.835274 -2.9617048e-08 0.9238795 -0.38268378 0.9375 0.5
1500 103.93369 -69.446335 -4.2548432e-08 0.8314695 -0.5555704 0.90625 1
-1500 103.93369 -69.446106 -4.2548432e-08 0.8314695 -0.5555704 0.90625 0.5
1500 88.38834 -88.38838 -5.2559823e-08 0.7071065 -0.7071071 0.875 1
-1500 88.38834 -88.38816 -5.2559823e-08 0.7071065 -0.7071071 0.875 0.5
1500 69.44628 -103.933716 -6.173693e-08 0.55556995 -0.83146983 0.84375 1
-1500 69.44628 -103.933495 -6.173692e-08 0.5555699 -0.83146983 0.84375 0.5
1500 47.83543 -115.48495 -6.841116e-08 0.38268322 -0.92387974 0.8125 1
-1500 47.83543 -115.484726 -6.841116e-08 0.3826832 -0.9238797 0.8125 0.5
1500 24.38629 -122.59816 -7.174828e-08 0.19509017 -0.9807853 0.78125 1
-1500 24.38629 -122.59794 -7.174828e-08 0.19509017 -0.9807853 0.78125 0.5
1500 0 -125 -7.341685e-08 0 -1 0.75 1
-1500 0 -124.99978 -7.341685e-08 0 -1 0.75 0.5
1500 -24.38629 -122.59816 -7.174828e-08 -0.19509017 -0.9807853 0.71875 1
-1500 -24.38629 -122.59794 -7.174828e-08 -0.19509017 -0.9807853 0.71875 0.5
1500 -47.83543 -115.48495 -6.841116e-08 -0.38268322 -0.92387974 0.6875 1
-1500 -47.83543 -115.484726 -6.841116e-08 -0.3826832 -0.9238797 0.6875 0.5
1500 -69.44628 -103.933716 -6.173693e-08 -0.55556995 -0.83146983 0.65625 1
-1500 -69.44628 -103.933495 -6.173692e-08 -0.5555699 -0.83146983 0.65625 0.5
1500 -88.38834 -88.38838 -5.2559823e-08 -0.7071065 -0.7071071 0.625 1
-1500 -88.38834 -88.38816 -5.2559823e-08 -0.7071065 -0.7071071 0.625 0.5
1500 -103.93369 -69.446335 -4.2548432e-08 -0.8314695 -0.5555704 0.59375 1
-1500 -103.93369 -69.446106 -4.2548432e-08 -0.8314695 -0.5555704 0.59375 0.5
1500 -115.48493 -47.835506 -2.9617048e-08 -0.9238795 -0.38268378 0.5625 1
-1500 -115.48493 -47.835274 -2.9617048e-08 -0.9238795 -0.38268378 0.5625 0.5
1500 -122.59815 -24.386383 -1.5004058e-08 -0.98078525 -0.19509079 0.53125 1
-1500 -122.59815 -24.386156 -1.5004057e-08 -0.98078525 -0.19509076 0.53125 0.5
1500 -125 -0.00011457427 -5.6816784e-16 -1 -4.7661373e-09 0.5 1
-1500 -125 0.00011457427 5.6816784e-16 -1 4.7661373e-09 0.5 0.5
1500 -122.59815 24.386156 1.5004057e-08 -0.98078525 0.19509076 0.46875 1
-1500 -122.59815 24.386383 1.5004058e-08 -0.98078525 0.19509079 0.46875 0.5
1500 -115.48493 47.835274 2.9617048e-08 -0.9238795 0.38268378 0.4375 1
-1500 -115.48493 47.835506 2.9617048e-08 -0.9238795 0.38268378 0.4375 0.5
1500 -103.93369 69.446106 4.2548432e-08 -0.8314695 0.5555704 0.40625 1
-1500 -103.93369 69.446335 4.2548432e-08 -0.8314695 0.5555704 0.40625 0.5
1500 -88.38834 88.38816 5.2559823e-08 -0.7071065 0.7071071 0.375 1
-1500 -88.38834 88.38838 5.2559823e-08 -0.7071065 0.7071071 0.375 0.5
1500 -69.44628 103.933495 6.173692e-08 -0.5555699 0.83146983 0.34375 1
-1500 -69.44628 103.933716 6.173693e-08 -0.55556995 0.83146983 0.34375 0.5
1500 -47.83543 115.484726 6.841116e-08 -0.3826832 0.9238797 0.3125 1
-1500 -47.83543 115.48495 6.841116e-08 -0.38268322 0.92387974 0.3125 0.5
1500 -24.38629 122.59794 7.174828e-08 -0.19509017 0.9807853 0.28125 1
-1500 -24.38629 122.59816 7.174828e-08 -0.19509017 0.9807853 0.28125 0.5
1500 0 124.99978 7.341685e-08 0 1 0.25 1
-1500 0 125 7.341685e-08 0 1 0.25 0.5
1500 24.38629 122.59794 7.174828e-08 0.19509017 0.9807853 0.21875 1
-1500 24.38629 122.59816 7.174828e-08 0.19509017 0.9807853 0.21875 0.5
1500 47.83543 115.484726 6.841116e-08 0.3826832 0.9238797 0.1875 1
-1500 47.83543 115.48495 6.841116e-08 0.38268322 0.92387974 0.1875 0.5
1500 69.44628 103.933495 6.173692e-08 0.5555699 0.83146983 0.15625 1
-1500 69.44628 103.933716 6.173693e-08 0.55556995 0.83146983 0.15625 0.5
1500 88.38834 88.38816 5.2559823e-08 0.7071065 0.7071071 0.125 1
-1500 88.38834 88.38838 5.2559823e-08 0.7071065 0.7071071 0.125 0.5
1500 103.93369 69.446106 4.2548432e-08 0.8314695 0.5555704 0.09375 1
-1500 103.93369 69.446335 4.2548432e-08 0.8314695 0.5555704 0.09375 0.5
1500 115.48493 47.835274 2.9617048e-08 0.9238795 0.38268378 0.0625 1
-1500 115.48493 47.835506 2.9617048e-08 0.9238795 0.38268378 0.0625 0.5
1500 122.59815 -24.386383 1 0 0 0.29682168 0.48538846
1500 125 -0.00011457427 1 0 0 0.25 0.49
1500 122.59815 24.386156 1 0 0 0.20317832 0.48538846
1500 115.48493 47.835274 1 0 0 0.15815598 0.47173107
1500 103.93369 69.446106 1 0 0 0.11666314 0.4495527
1500 88.38834 88.38816 1 0 0 0.080294386 0.41970563
1500 69.44628 103.933495 1 0 0 0.0504473 0.38333684
1500 47.83543 115.484726 1 0 0 0.028268918 0.34184402
1500 24.38629 122.59794 1 0 0 0.014611542 0.29682168
1500 0 124.99978 1 0 0 0.010000005 0.25
1500 -24.38629 122.59794 1 0 0 0.014611542 0.20317832
1500 -47.83543 115.484726 1 0 0 0.028268918 0.15815598
1500 -69.44628 103.933495 1 0 0 0.0504473 0.11666314
1500 -88.38834 88.38816 1 0 0 0.080294386 0.080294386
1500 -103.93369 69.446106 1 0 0 0.11666314 0.0504473
1500 -115.48493 47.835274 1 0 0 0.15815598 0.028268918
1500 -122.59815 24.386156 1 0 0 0.20317832 0.014611542
1500 -125 -0.00011457427 1 0 0 0.25 0.010000005
1500 -122.59815 -24.386383 1 0 0 0.29682168 0.014611542
1500 -115.48493 -47.835506 1 0 0 0.34184402 0.028268918
1500 -103.93369 -69.446335 1 0 0 0.38333684 0.0504473
1500 -88.38834 -88.38838 1 0 0 0.41970563 0.080294386
1500 -69.44628 -103.933716 1 0 0 0.4495527 0.11666314
1500 -47.83543 -115.48495 1 0 0 0.47173107 0.15815598
1500 -24.38629 -122.59816 1 0 0 0.48538846 0.20317832
1500 0 -125 1 0 0 0.49 0.25
1500 24.38629 -122.59816 1 0 0 0.48538846 0.29682168
1500 47.83543 -115.48495 1 0 0 0.47173107 0.34184402
1500 69.44628 -103.933716 1 0 0 0.4495527 0.38333684
1500 88.38834 -88.38838 1 0 0 0.41970563 0.41970563
1500 103.93369 -69.446335 1 0 0 0.38333684 0.4495527
1500 115.48493 -47.835506 1 0 0 0.34184402 0.47173107
1500 122.59815 24.386156 1.5004057e-08 0.98078525 0.19509076 0.03125 1
-1500 122.59815 24.386383 1.5004058e-08 0.98078525 0.19509079 0.03125 0.5
1500 125 -0.00011457427 7.4464457e-09 0.9951847 0.09801737 0 1
-1500 125 0.00011457427 7.4464457e-09 0.9951847 0.09801737 0 0.5
-1500 125 0.00011457427 -1 8.009119e-08 0 0.75 0.49
-1500 122.59815 -24.386156 -1 8.009119e-08 0 0.79682165 0.48538846
-1500 115.48493 -47.835274 -1 8.009119e-08 0 0.841844 0.47173107
-1500 103.93369 -69.446106 -1 8.009119e-08 0 0.88333684 0.4495527
-1500 88.38834 -88.38816 -1 8.009119e-08 0 0.9197056 0.41970563
-1500 69.44628 -103.933495 -1 8.009119e-08 0 0.9495527 0.38333684
-1500 47.83543 -115.484726 -1 8.009119e-08 0 0.97173107 0.34184402
-1500 24.38629 -122.59794 -1 8.009119e-08 0 0.98538846 0.29682168
-1500 0 -124.99978 -1 8.009119e-08 0 0.99 0.25
-1500 -24.38629 -122.59794 -1 8.009119e-08 0 0.98538846 0.20317832
-1500 -47.83543 -115.484726 -1 8.009119e-08 0 0.97173107 0.15815598
-1500 -69.44628 -103.933495 -1 8.009119e-08 0 0.9495527 0.11666314
-1500 -88.38834 -88.38816 -1 8.009119e-08 0 0.9197056 0.080294386
-1500 -103.93369 -69.446106 -1 8.009119e-08 0 0.88333684 0.0504473
-1500 -115.48493 -47.835274 -1 8.009119e-08 0 0.841844 0.028268918
-1500 -122.59815 -24.386156 -1 8.009119e-08 0 0.79682165 0.014611542
-1500 -125 0.00011457427 -1 8.009119e-08 0 0.75 0.010000005
-1500 -122.59815 24.386383 -1 8.009119e-08 0 0.70317835 0.014611542
-1500 -115.48493 47.835506 -1 8.009119e-08 0 0.658156 0.028268918
-1500 -103.93369 69.446335 -1 8.009119e-08 0 0.61666316 0.0504473
-1500 -88.38834 88.38838 -1 8.009119e-08 0 0.5802944 0.080294386
-1500 -69.44628 103.933716 -1 8.009119e-08 0 0.5504473 0.11666314
-1500 -47.83543 115.48495 -1 8.009119e-08 0 0.52826893 0.15815598
-1500 -24.38629 122.59816 -1 8.009119e-08 0 0.51461154 0.20317832
-1500 0 125 -1 8.009119e-08 0 0.51 0.25
-1500 24.38629 122.59816 -1 8.009119e-08 0 0.51461154 0.29682168
-1500 47.83543 115.48495 -1 8.009119e-08 0 0.52826893 0.34184402
-1500 69.44628 103.933716 -1 8.009119e-08 0 0.5504473 0.38333684
-1500 88.38834 88.38838 -1 8.009119e-08 0 0.5802944 0.41970563
-1500 103.93369 69.446335 -1 8.009119e-08 0 0.61666316 0.4495527
-1500 115.48493 47.835506 -1 8.009119e-08 0 0.658156 0.47173107
-1500 122.59815 24.386383 -1 8.009119e-08 0 0.70317835 0.48538846
4 0 1 2 3
4 3 2 4 5
4 5 4 6 7
4 7 6 8 9
4 9 8 10 11
4 11 10 12 13
4 13 12 14 15
4 15 14 16 17
4 17 16 18 19
4 19 18 20 21
4 21 20 22 23
4 23 22 24 25
4 25 24 26 27
4 27 26 28 29
4 29 28 30 31
4 31 30 32 33
4 33 32 34 35
4 35 34 36 37
4 37 36 38 39
4 39 38 40 41
4 41 40 42 43
4 43 42 44 45
4 45 44 46 47
4 47 46 48 49
4 49 48 50 51
4 51 50 52 53
4 53 52 54 55
4 55 54 56 57
4 57 56 58 59
4 59 58 60 61
32 62 63 64 65 66 67 68 69 70 71 72 73 74 75 76 77 78 79 80 81 82 83 84 85 86 87 88 89 90 91 92 93
4 61 60 94 95
4 95 94 96 97
32 98 99 100 101 102 103 104 105 106 107 108 109 110 111 112 113 114 115 116 117 118 119 120 121 122 123 124 125 126 127 128 129
