ply
format ascii 1.0
comment Created in Blender version 4.2.3 LTS
element vertex 325
property float x
property float y
property float z
property float nx
property float ny
property float nz
property float s
property float t
element face 192
property list uchar uint vertex_indices
end_header
-0.9162896 -0.5882421 -0.0657725 -0.8757962 0.06078639 -0.4788381 1.0000001 6.368922
0.0060400106 0.11429945 -0.000609003 -0.45498306 0.65343803 -0.604987 1.0000001 8.868922
0.008457296 0.11149402 -0.0045775995 -0.41332275 0.60569525 -0.6799247 0.9843751 8.868923
-0.9138723 -0.5910475 -0.069741115 -0.85389054 0.00050580496 -0.5204523 0.9843751 6.368922
0.9283696 0.81684095 0.064554505 0.21345022 0.89046675 -0.4018807 1.0000001 11.368922
0.9307869 0.81403553 0.060585905 0.2693574 0.856084 -0.44109726 0.9843751 11.368922
0.9332042 0.8112301 0.056617305 0.27698883 0.8167239 -0.5062009 0.9687501 11.368922
0.010874579 0.1086886 -0.008546203 -0.36768213 0.5521195 -0.748314 0.96875024 8.868922
-0.91145504 -0.59385294 -0.07370971 -0.8122605 -0.012953728 -0.5831511 0.9687501 6.368922
0.013683107 0.10529568 -0.011718534 -0.31850055 0.49322653 -0.8094969 0.9531251 8.868923
-0.9086465 -0.5972459 -0.07688205 -0.78684217 -0.079021774 -0.6120743 0.9531251 6.368922
0.9360127 0.8078372 0.05344497 0.33640712 0.77655715 -0.5327188 0.9531251 11.368922
0.9388212 0.80444425 0.050272632 0.3508212 0.7275273 -0.58960027 0.9375001 11.368922
0.016491633 0.10190276 -0.014890868 -0.26625174 0.4295836 -0.86288357 0.9375001 8.868922
-0.905838 -0.6006388 -0.08005439 -0.7384222 -0.102153 -0.6665564 0.9375001 6.368922
0.019583471 0.09805273 -0.017145034 -0.2114385 0.3618033 -0.9079604 0.9218751 8.868923
-0.90274614 -0.6044888 -0.082308546 -0.711133 -0.17195584 -0.6817045 0.9218751 6.368922
0.94191307 0.8005943 0.048018474 0.4121129 0.68362427 -0.6023461 0.9218751 11.368922
0.9450049 0.7967442 0.045764316 0.43209857 0.6263191 -0.6488568 0.9062501 11.368922
0.02267531 0.094202705 -0.019399192 -0.15458915 0.29053882 -0.94429314 0.9062501 8.868922
-0.8996543 -0.60833883 -0.084562704 -0.6571451 -0.20336139 -0.725813 0.9062501 6.368922
0.025931641 0.09004352 -0.020648547 -0.09625113 0.21647641 -0.9715317 0.8906251 8.868923
-0.896398 -0.61249804 -0.08581205 -0.6296834 -0.27471757 -0.72665614 0.8906251 6.368922
0.9482612 0.792585 0.04451496 0.4935628 0.58086276 -0.6472977 0.8906251 11.368922
0.9515176 0.78842586 0.043265607 0.5177002 0.516984 -0.68169945 0.8750001 11.368922
0.029187975 0.08588433 -0.021897908 -0.036985874 0.14032882 -0.989414 0.8750001 8.868922
-0.8931416 -0.6166572 -0.087061405 -0.5715439 -0.31269684 -0.7586557 0.8750001 6.368922
0.032483663 0.08157583 -0.022094447 0.022635547 0.062829904 -0.9977675 0.8593751 8.868923
-0.88984597 -0.6209657 -0.08725795 -0.5456179 -0.38336217 -0.7452077 0.8593751 6.368922
0.95481324 0.78411734 0.04306906 0.57762873 0.47221676 -0.6658502 0.8593751 11.368922
0.95810896 0.7798088 0.04287252 0.6043366 0.40372017 -0.6868677 0.8437501 11.368922
0.035779353 0.07726733 -0.02229099 0.08203897 -0.015274227 -0.9965121 0.8437501 8.868922
-0.88655025 -0.62527424 -0.0874545 -0.48490775 -0.42595774 -0.7638223 0.8437501 6.368922
0.03898775 0.07297507 -0.021427166 0.14065203 -0.093230724 -0.9856597 0.828125 8.868923
-0.88334185 -0.6295665 -0.08659068 -0.46216756 -0.49371395 -0.73664635 0.8281251 6.368922
0.96131736 0.77551657 0.043736342 0.661079 0.36186516 -0.6572886 0.8281251 11.368922
0.9645257 0.7712243 0.044600163 0.6886775 0.29089016 -0.66415834 0.8125001 11.368922
0.04219614 0.06868282 -0.020563342 0.19791046 -0.17028937 -0.965315 0.8125001 8.868922
-0.8801335 -0.63385874 -0.08572686 -0.40056676 -0.53879076 -0.7411146 0.8125001 6.368922
0.04519394 0.06457177 -0.018672347 0.2532632 -0.24570839 -0.9356736 0.7968751 8.868923
-0.8771357 -0.6379698 -0.083835855 -0.38253948 -0.60153216 -0.7013007 0.7968751 6.368922
0.9675235 0.76711327 0.046491157 0.74070746 0.25404936 -0.62194175 0.7968751 11.368922
0.97052133 0.7630022 0.048382152 0.76748323 0.18282141 -0.6144476 0.7812501 11.368922
0.048191745 0.060460713 -0.016781356 0.3061768 -0.31876102 -0.89702135 0.7812501 8.868922
-0.8741379 -0.64208084 -0.08194487 -0.32176164 -0.6468611 -0.69140464 0.7812501 6.368922
0.05086375 0.05668885 -0.0139358565 0.35614178 -0.3887438 -0.8497301 0.765625 8.868923
-0.87146586 -0.6458527 -0.07909937 -0.30979317 -0.70267373 -0.6405294 0.7656251 6.368922
0.97319335 0.7592304 0.051227644 0.81345373 0.15290768 -0.5611704 0.7656251 11.368922
0.97586536 0.7554585 0.05407314 0.83772385 0.08366638 -0.53964674 0.7500001 11.368922
0.053535756 0.05291698 -0.011090368 0.402677 -0.45498294 -0.79425555 0.7500001 8.868922
-0.86879385 -0.6496246 -0.076253876 -0.25152066 -0.74601483 -0.6166031 0.7500001 6.368922
0.05577928 0.049629256 -0.0073997155 0.4453342 -0.51684034 -0.73113173 0.7343751 8.868923
-0.8665503 -0.6529123 -0.07256323 -0.24672544 -0.793252 -0.55666673 0.7343751 6.368922
0.9781089 0.75217074 0.057763785 0.8765227 0.06233012 -0.4773079 0.7343751 11.368922
0.9803524 0.748883 0.061454434 0.8967021 -0.002758503 -0.44262603 0.7187501 11.368922
0.058022805 0.046341527 -0.003709074 0.48370248 -0.57372004 -0.66096693 0.7187501 8.868922
-0.8643068 -0.65620005 -0.068872586 -0.1925453 -0.83244216 -0.519583 0.7187501 6.368922
0.059751634 0.043664284 0.0006848946 0.5174125 -0.6250746 -0.58443654 0.7031251 8.868923
-0.862578 -0.65887725 -0.06447862 -0.19575828 -0.86978537 -0.45293722 0.7031251 6.368922
0.98208123 0.7462058 0.065848395 0.9274899 -0.014203338 -0.3735783 0.7031251 11.368922
0.98381007 0.74352854 0.07024236 0.9421478 -0.07313913 -0.32712117 0.6875001 11.368922
0.061480463 0.040987037 0.0050788596 0.54613936 -0.67040914 -0.50227815 0.6875001 8.868922
-0.86084914 -0.6615545 -0.060084652 -0.14709647 -0.90282017 -0.40407744 0.6875001 6.368922
0.06262815 0.03902316 0.010007288 0.56960684 -0.7092876 -0.4152821 0.6718751 8.868923
-0.85970145 -0.66351837 -0.05515622 -0.15884912 -0.9293325 -0.33332887 0.6718751 6.368922
0.98495775 0.7415647 0.0751708 0.96439636 -0.0737521 -0.25396904 0.6718751 11.368922
0.98610544 0.7396008 0.080099225 0.972318 -0.12476507 -0.19756381 0.6562501 11.368922
0.06377585 0.037059285 0.014935717 0.58758867 -0.74133515 -0.32428646 0.6562501 8.868922
-0.85855377 -0.6654823 -0.050227795 -0.11692418 -0.9544455 -0.27452272 0.6562501 6.368922
0.0642983 0.035884246 0.020209206 0.5999117 -0.76624316 -0.23016828 0.6406251 8.868923
-0.85803133 -0.6666573 -0.044954304 -0.13742031 -0.96960634 -0.20243368 0.6406251 6.368922
0.9866279 0.73842573 0.085372716 0.98582506 -0.11402586 -0.123073675 0.6406251 11.368922
0.9871503 0.73725075 0.09064621 0.986052 -0.15565398 -0.05893585 0.6250001 11.368922
0.06482075 0.034709204 0.025482703 0.60645723 -0.783772 -0.13383298 0.6250001 8.868922
-0.8575089 -0.6678323 -0.039680805 -0.10319215 -0.9853349 -0.13589206 0.6250001 6.368922
0.06469789 0.034368165 0.030898606 0.6071621 -0.79375255 -0.03620878 0.6093751 8.868923
-0.85763174 -0.6681734 -0.034264896 -0.1322944 -0.98905843 -0.06528204 0.6093751 6.368922
0.98702747 0.7369097 0.096062124 0.9909519 -0.133478 0.014076458 0.6093751 11.368922
0.9869046 0.7365686 0.10147801 0.982822 -0.16461939 0.08343558 0.5937501 11.368922
0.06457502 0.034027122 0.03631451 0.60201985 -0.7960888 0.061763793 0.5937501 8.868922
-0.8577546 -0.66851443 -0.028849002 -0.10642178 -0.99430007 0.0064793983 0.5937501 6.368922
0.063811556 0.03453318 0.04166469 0.59107983 -0.7907584 0.1591415 0.5781251 8.868923
-0.85851806 -0.6680084 -0.023498815 -0.14366621 -0.9869411 0.07285151 0.5781251 6.368922
0.98614115 0.7370747 0.1068282 0.97957975 -0.13136092 0.15220997 0.5781251 11.368922
0.98537767 0.7375807 0.112178385 0.9627522 -0.15131634 0.22407922 0.5625001 11.368922
0.063048095 0.03503924 0.04701487 0.5744473 -0.7778124 0.2549868 0.5625001 8.868922
-0.85928154 -0.66750234 -0.018148635 -0.1264913 -0.9809969 0.14712305 0.5625001 6.368922
0.061673377 0.036372952 0.05209373 0.5522826 -0.7573758 0.34837627 0.546875 8.868923
-0.86065626 -0.66616863 -0.013069775 -0.17110191 -0.9633349 0.20666432 0.5468751 6.368922
0.98400295 0.73891443 0.11725724 0.952144 -0.10775204 0.28602657 0.5468751 11.368922
0.9826282 0.74024814 0.122336105 0.9266096 -0.11624873 0.35760465 0.5312501 11.368922
0.06029866 0.03770666 0.05717259 0.52479905 -0.72964513 0.4384108 0.5312501 8.868922
-0.862031 -0.6648349 -0.007990919 -0.16263306 -0.94593394 0.2806412 0.5312501 6.368922
0.058365513 0.039816774 0.061784938 0.49226147 -0.6948877 0.52422315 0.5156251 8.868923
-0.8639641 -0.6627248 -0.0033785664 -0.21354291 -0.91914856 0.33100665 0.5156251 6.368922
0.9806951 0.74235827 0.12694845 0.9097016 -0.06356633 0.41036877 0.5156251 11.368922
0.978762 0.7444684 0.1315608 0.8757962 -0.06078639 0.4788381 0.5000001 11.368922
0.05643237 0.04192688 0.066397294 0.45498294 -0.6534379 0.6049871 0.5000001 8.868922
-0.86589724 -0.66061467 0.0012337863 -0.21344724 -0.8904668 0.401882 0.5000001 6.368922
0.054015085 0.044732302 0.07036589 0.41332275 -0.60569525 0.6799247 0.4843751 8.868923
-0.86831456 -0.65780926 0.0052023865 -0.26935574 -0.8560863 0.4410939 0.4843751 6.368922
0.97634465 0.7472738 0.1355294 0.8538885 -0.00050380826 0.5204557 0.4843751 11.368922
0.9739274 0.7500792 0.13949801 0.8122561 0.012957573 0.5831572 0.4687501 11.368922
0.051597804 0.04753772 0.074334495 0.36768213 -0.5521195 0.748314 0.46875003 8.868922
-0.87073183 -0.65500385 0.009170987 -0.27698576 -0.81672883 0.5061948 0.4687501 6.368922
0.048789274 0.05093064 0.077506825 0.31850055 -0.49322653 0.8094969 0.4531251 8.868923
-0.87354034 -0.6516109 0.012343321 -0.33640566 -0.7765598 0.53271574 0.4531251 6.368922
0.97111887 0.75347215 0.14267033 0.78683966 0.07902371 0.6120773 0.4531251 11.368922
0.96831036 0.7568651 0.14584267 0.7384222 0.102153 0.6665564 0.4375001 11.368922
0.045980748 0.05432356 0.08067916 0.26625174 -0.4295836 0.86288357 0.4375001 8.868922
-0.87634885 -0.648218 0.015515659 -0.3508212 -0.7275273 0.58960027 0.4375001 6.368922
0.04288891 0.05817359 0.08293332 0.2114385 -0.3618033 0.9079604 0.42187497 8.868923
-0.8794407 -0.644368 0.017769817 -0.4121129 -0.68362427 0.6023461 0.42187503 6.368922
0.9652185 0.76071507 0.14809683 0.711133 0.17195584 0.6817045 0.42187503 11.368922
0.9621267 0.7645651 0.15035099 0.6571451 0.20336139 0.725813 0.4062501 11.368922
0.03979707 0.062023617 0.08518748 0.15458915 -0.29053882 0.94429314 0.4062501 8.868922
-0.88253254 -0.64051795 0.020023976 -0.43209857 -0.6263191 0.6488568 0.4062501 6.368922
0.03654074 0.0661828 0.08643684 0.09625113 -0.21647641 0.9715317 0.39062503 8.868923
-0.88578886 -0.63635874 0.02127333 -0.4935628 -0.58086276 0.6472977 0.39062503 6.368922
0.95887035 0.7687243 0.15160035 0.6296834 0.27471757 0.72665614 0.39062503 11.368922
0.955614 0.7728835 0.1528497 0.5715439 0.31269684 0.7586557 0.3750001 11.368922
0.033284403 0.07034199 0.087686196 0.036985874 -0.14032882 0.989414 0.37500003 8.868922
-0.88904524 -0.6321996 0.022522684 -0.5177002 -0.516984 0.68169945 0.3750001 6.368922
0.029988717 0.07465049 0.08788274 -0.022635547 -0.062829904 0.9977675 0.35937497 8.868923
-0.8923409 -0.62789106 0.02271923 -0.5776285 -0.47221828 0.6658493 0.3593751 6.368922
0.9523183 0.777192 0.15304625 0.5456163 0.38336268 0.7452086 0.3593751 11.368922
0.9490226 0.7815005 0.1532428 0.48490474 0.4259586 0.76382375 0.34375003 11.368922
0.026693027 0.078958996 0.08807928 -0.08203897 0.015274227 0.9965121 0.3437501 8.868922
-0.8956366 -0.62358254 0.022915773 -0.6043365 -0.40372318 0.6868661 0.34375003 6.368922
0.023484634 0.08325125 0.08721545 -0.14065203 0.093230724 0.9856597 0.32812503 8.868923
-0.898845 -0.6192903 0.022051949 -0.661079 -0.36186665 0.6572878 0.32812503 6.368922
0.9458142 0.78579277 0.15237896 0.46216607 0.49371427 0.736647 0.32812503 11.368922
0.94260585 0.790085 0.15151514 0.40056676 0.53879076 0.7411146 0.31250003 11.368922
0.020276241 0.0875435 0.08635163 -0.19791046 0.17028937 0.965315 0.31250003 8.868922
-0.90205336 -0.61499804 0.021188129 -0.6886775 -0.29089016 0.66415834 0.31250003 6.368922
0.017278438 0.091654554 0.08446064 -0.2532632 0.24570839 0.9356736 0.29687497 8.868923
-0.9050512 -0.610887 0.019297134 -0.7407076 -0.25405005 0.6219413 0.29687503 6.368922
0.93960804 0.79419607 0.14962415 0.3825403 0.60153216 0.7013003 0.29687503 11.368922
0.9366102 0.7983071 0.14773315 0.32176292 0.646861 0.691404 0.28125003 11.368922
0.014280636 0.095765606 0.082569644 -0.3061768 0.31876102 0.89702135 0.28125003 8.868922
-0.908049 -0.60677594 0.01740614 -0.7674836 -0.18282267 0.6144468 0.28125003 6.368922
0.011608632 0.09953748 0.07972415 -0.35614178 0.3887438 0.8497301 0.26562503 8.868923
-0.910721 -0.6030041 0.014560647 -0.81345403 -0.15290833 0.56117 0.2656251 6.368922
0.9339382 0.80207896 0.14488767 0.3097939 0.7026738 0.64052904 0.2656251 11.368922
0.9312662 0.80585086 0.14204217 0.25152066 0.74601483 0.6166031 0.25000003 11.368922
0.008936625 0.10330934 0.07687866 -0.402677 0.45498294 0.79425555 0.25000003 8.868922
-0.913393 -0.5992322 0.011715151 -0.83772385 -0.08366638 0.53964674 0.25000003 6.368922
0.0066931006 0.106597066 0.07318801 -0.4453342 0.51684034 0.73113173 0.23437503 8.868923
-0.91563654 -0.59594446 0.008024506 -0.8765225 -0.062329262 0.4773087 0.23437503 6.368922
0.92902267 0.8091386 0.13835153 0.24672574 0.79325205 0.5566666 0.23437503 11.368922
0.92677915 0.8124263 0.13466087 0.19254583 0.8324423 0.5195825 0.21875003 11.368922
0.004449576 0.1098848 0.06949736 -0.48370248 0.57372004 0.66096693 0.21875003 8.868922
-0.91788006 -0.59265673 0.0043338574 -0.8967013 0.0027600226 0.4426276 0.21875003 6.368922
0.0027207471 0.11256204 0.0651034 -0.5174125 0.6250746 0.58443654 0.20312503 8.868923
-0.9196089 -0.5899795 -6.010756e-05 -0.9274896 0.014204025 0.37357914 0.20312503 6.368922
0.9250503 0.81510353 0.1302669 0.19575855 0.8697854 0.45293692 0.20312503 11.368922
0.9233215 0.8177808 0.12587294 0.14709647 0.90282017 0.40407744 0.18750003 11.368922
0.0009919181 0.115239285 0.06070943 -0.54613936 0.67040914 0.50227815 0.18750003 8.868922
-0.9213377 -0.58730227 -0.0044540726 -0.9421478 0.07313913 0.32712117 0.18750003 6.368922
-0.00015577301 0.11720316 0.055781003 -0.56960684 0.7092876 0.4152821 0.17187503 8.868923
-0.9224854 -0.5853384 -0.009382505 -0.9643959 0.07375299 0.25397044 0.17187503 6.368922
0.9221738 0.81974465 0.120944515 0.1588502 0.9293328 0.3333276 0.17187503 11.368922
0.9210261 0.82170856 0.11601609 0.11692613 0.95444596 0.27452004 0.15625003 11.368922
-0.0013034679 0.11916704 0.050852574 -0.58758867 0.74133515 0.32428646 0.15625003 8.868922
-0.9236331 -0.5833745 -0.014310934 -0.9723172 0.12476659 0.19756669 0.15625003 6.368922
-0.0018259175 0.120342076 0.045579083 -0.5999117 0.76624316 0.23016828 0.14062503 8.868923
-0.92415553 -0.58219945 -0.019584421 -0.9858247 0.11402671 0.12307523 0.14062503 6.368922
0.9205037 0.8228836 0.1107426 0.13742137 0.9696064 0.20243219 0.14062503 11.368922
0.91998124 0.8240586 0.10546909 0.10319215 0.9853349 0.13589206 0.12500003 11.368922
-0.0023483746 0.12151712 0.04030559 -0.60645723 0.783772 0.13383298 0.12500003 8.868922
-0.92467797 -0.58102447 -0.02485792 -0.986052 0.15565398 0.05893585 0.12500003 6.368922
-0.002225507 0.12185816 0.034889683 -0.6071621 0.79375255 0.03620878 0.109375 8.868923
-0.9245551 -0.5806834 -0.030273829 -0.9909519 0.133478 -0.014076458 0.109375 6.368922
0.9201041 0.82439965 0.10005319 0.1322944 0.98905843 0.06528204 0.109375 11.368922
0.92022693 0.8247407 0.09463729 0.10642178 0.99430007 -0.0064793983 0.09375003 11.368922
-0.0021026395 0.1221992 0.029473783 -0.60201985 0.7960888 -0.061763793 0.09375 8.868922
-0.9244323 -0.58034235 -0.035689723 -0.982822 0.16461939 -0.08343558 0.09375003 6.368922
-0.0013391785 0.12169314 0.0241236 -0.59107983 0.7907584 -0.1591415 0.07812503 8.868923
-0.9236688 -0.5808484 -0.04103991 -0.97957975 0.13136092 -0.15220997 0.07812503 6.368922
0.9209904 0.82423466 0.0892871 0.14366736 0.98694056 -0.07285594 0.07812503 11.368922
0.9217539 0.8237286 0.08393693 0.12649658 0.980995 -0.14713068 0.0625 11.368922
-0.00057571754 0.12118708 0.01877342 -0.5744472 0.77781236 -0.25498697 0.0625 8.868922
-0.9229053 -0.58135444 -0.04639009 -0.9627522 0.15131634 -0.22407922 0.0625 6.368922
0.9332042 0.8112301 0.056617305 0.27698883 0.8167239 -0.5062009 0.29682168 6.222806
0.9307869 0.81403553 0.060585905 0.2693574 0.856084 -0.44109726 0.2734109 6.245864
0.95356584 0.7806547 0.09805766 0.7942553 0.6049874 0.056115154 0.24999997 3.8689218
0.9360127 0.8078372 0.05344497 0.33640712 0.77655715 -0.5327188 0.3193328 6.1545196
0.9283696 0.81684095 0.064554505 0.21345022 0.89046675 -0.4018807 0.24999997 6.268922
0.9264363 0.818951 0.069166854 0.21353757 0.9191506 -0.33100444 0.22658917 6.245864
0.9245032 0.8210611 0.07377921 0.16262874 0.9459366 -0.28063464 0.20317832 6.222806
0.9231285 0.8223948 0.07885806 0.17109758 0.96333516 -0.20666648 0.18066713 6.1545196
0.9217539 0.8237286 0.08393693 0.12649658 0.980995 -0.14713068 0.15815598 6.086232
0.9209904 0.82423466 0.0892871 0.14366736 0.98694056 -0.07285594 0.13740957 5.975341
0.92022693 0.8247407 0.09463729 0.10642178 0.99430007 -0.0064793983 0.11666313 5.8644485
0.9201041 0.82439965 0.10005319 0.1322944 0.98905843 0.06528204 0.098478764 5.715213
0.91998124 0.8240586 0.10546909 0.10319215 0.9853349 0.13589206 0.08029437 5.565978
0.9205037 0.8228836 0.1107426 0.13742137 0.9696064 0.20243219 0.06537083 5.3841343
0.9210261 0.82170856 0.11601609 0.11692613 0.95444596 0.27452004 0.050447315 5.20229
0.9221738 0.81974465 0.120944515 0.1588502 0.9293328 0.3333276 0.03935811 4.994826
0.9233215 0.8177808 0.12587294 0.14709647 0.90282017 0.40407744 0.028268903 4.787362
0.9250503 0.81510353 0.1302669 0.19575855 0.8697854 0.45293692 0.021440238 4.56225
0.92677915 0.8124263 0.13466087 0.19254583 0.8324423 0.5195825 0.014611542 4.3371387
0.92902267 0.8091386 0.13835153 0.24672574 0.79325205 0.5566666 0.012305766 4.10303
0.9312662 0.80585086 0.14204217 0.25152066 0.74601483 0.6166031 0.01000002 3.8689218
0.9339382 0.80207896 0.14488767 0.3097939 0.7026738 0.64052904 0.012305766 3.634813
0.9366102 0.7983071 0.14773315 0.32176292 0.646861 0.691404 0.014611542 3.4007049
0.93960804 0.79419607 0.14962415 0.3825403 0.60153216 0.7013003 0.021440238 3.1755934
0.94260585 0.790085 0.15151514 0.40056676 0.53879076 0.7411146 0.028268903 2.9504814
0.9458142 0.78579277 0.15237896 0.46216607 0.49371427 0.736647 0.03935811 2.7430172
0.9490226 0.7815005 0.1532428 0.48490474 0.4259586 0.76382375 0.050447315 2.5355532
0.9523183 0.777192 0.15304625 0.5456163 0.38336268 0.7452086 0.06537083 2.3537092
0.955614 0.7728835 0.1528497 0.5715439 0.31269684 0.7586557 0.08029437 2.1718655
0.95887035 0.7687243 0.15160035 0.6296834 0.27471757 0.72665614 0.098478764 2.02263
0.9621267 0.7645651 0.15035099 0.6571451 0.20336139 0.725813 0.11666313 1.8733947
0.9652185 0.76071507 0.14809683 0.711133 0.17195584 0.6817045 0.13740957 1.7625027
0.96831036 0.7568651 0.14584267 0.7384222 0.102153 0.6665564 0.15815598 1.6516109
0.97111887 0.75347215 0.14267033 0.78683966 0.07902371 0.6120773 0.18066713 1.583324
0.9739274 0.7500792 0.13949801 0.8122561 0.012957573 0.5831572 0.20317832 1.5150371
0.97634465 0.7472738 0.1355294 0.8538885 -0.00050380826 0.5204557 0.22658917 1.4919794
0.978762 0.7444684 0.1315608 0.8757962 -0.06078639 0.4788381 0.24999997 1.4689217
0.9806951 0.74235827 0.12694845 0.9097016 -0.06356633 0.41036877 0.2734109 1.4919794
0.9826282 0.74024814 0.122336105 0.9266096 -0.11624873 0.35760465 0.29682168 1.5150371
0.98400295 0.73891443 0.11725724 0.952144 -0.10775204 0.28602657 0.3193328 1.583324
0.98537767 0.7375807 0.112178385 0.9627522 -0.15131634 0.22407922 0.34184405 1.6516109
0.98614115 0.7370747 0.1068282 0.97957975 -0.13136092 0.15220997 0.3625904 1.7625027
0.9869046 0.7365686 0.10147801 0.982822 -0.16461939 0.08343558 0.38333687 1.8733947
0.98702747 0.7369097 0.096062124 0.9909519 -0.133478 0.014076458 0.40152124 2.02263
0.9871503 0.73725075 0.09064621 0.986052 -0.15565398 -0.05893585 0.4197056 2.1718655
0.9866279 0.73842573 0.085372716 0.98582506 -0.11402586 -0.123073675 0.43462917 2.3537092
0.98610544 0.7396008 0.080099225 0.972318 -0.12476507 -0.19756381 0.44955274 2.5355532
0.98495775 0.7415647 0.0751708 0.96439636 -0.0737521 -0.25396904 0.4606419 2.7430172
0.98381007 0.74352854 0.07024236 0.9421478 -0.07313913 -0.32712117 0.47173104 2.9504814
0.98208123 0.7462058 0.065848395 0.9274899 -0.014203338 -0.3735783 0.47855976 3.1755934
0.9803524 0.748883 0.061454434 0.8967021 -0.002758503 -0.44262603 0.4853885 3.4007049
0.9781089 0.75217074 0.057763785 0.8765227 0.06233012 -0.4773079 0.48769423 3.634813
0.97586536 0.7554585 0.05407314 0.83772385 0.08366638 -0.53964674 0.48999998 3.8689218
0.97319335 0.7592304 0.051227644 0.81345373 0.15290768 -0.5611704 0.48769423 4.10303
0.97052133 0.7630022 0.048382152 0.76748323 0.18282141 -0.6144476 0.4853885 4.3371387
0.9675235 0.76711327 0.046491157 0.74070746 0.25404936 -0.62194175 0.47855976 4.56225
0.9645257 0.7712243 0.044600163 0.6886775 0.29089016 -0.66415834 0.47173104 4.787362
0.96131736 0.77551657 0.043736342 0.661079 0.36186516 -0.6572886 0.4606419 4.994826
0.95810896 0.7798088 0.04287252 0.6043366 0.40372017 -0.6868677 0.44955274 5.20229
0.95481324 0.78411734 0.04306906 0.57762873 0.47221676 -0.6658502 0.43462917 5.3841343
0.9515176 0.78842586 0.043265607 0.5177002 0.516984 -0.68169945 0.4197056 5.565978
0.9482612 0.792585 0.04451496 0.4935628 0.58086276 -0.6472977 0.40152124 5.715213
0.9450049 0.7967442 0.045764316 0.43209857 0.6263191 -0.6488568 0.38333687 5.8644485
0.94191307 0.8005943 0.048018474 0.4121129 0.68362427 -0.6023461 0.3625904 5.975341
0.9388212 0.80444425 0.050272632 0.3508212 0.7275273 -0.58960027 0.34184405 6.086232
0.000799004 0.11985337 0.013694562 -0.5522825 0.7573758 -0.34837645 0.046875 8.868923
-0.9215306 -0.58268815 -0.05146895 -0.952145 0.10775396 -0.2860228 0.046875 6.368922
0.9231285 0.8223948 0.07885806 0.17109758 0.96333516 -0.20666648 0.046875 11.368922
0.9245032 0.8210611 0.07377921 0.16262874 0.9459366 -0.28063464 0.03125 11.368922
0.00217372 0.118519664 0.008615702 -0.524799 0.72964513 -0.43841082 0.03125 8.868922
-0.9201559 -0.58402187 -0.05654781 -0.9266118 0.1162525 -0.35759744 0.03125 6.368922
0.004106868 0.11640955 0.0040033534 -0.49226153 0.69488776 -0.5242229 0.015625 8.868923
-0.9182228 -0.586132 -0.06116016 -0.909703 0.063568324 -0.4103651 0.015625 6.368922
0.9264363 0.818951 0.069166854 0.21353757 0.9191506 -0.33100444 0.015625 11.368922
0.9283696 0.81684095 0.064554505 0.21345022 0.89046675 -0.4018807 0 11.368922
0.0060400106 0.11429945 -0.000609003 -0.45498306 0.65343803 -0.604987 0 8.868922
-0.9162896 -0.5882421 -0.0657725 -0.8757962 0.06078639 -0.4788381 0 6.368922
-0.9162896 -0.5882421 -0.0657725 -0.8757962 0.06078639 -0.4788381 0.75 6.268922
-0.9138723 -0.5910475 -0.069741115 -0.85389054 0.00050580496 -0.5204523 0.7734108 6.245864
-0.8910935 -0.62442845 -0.03226937 -0.7942555 -0.60498714 -0.056115042 0.75 3.8689218
-0.9182228 -0.586132 -0.06116016 -0.909703 0.063568324 -0.4103651 0.7265892 6.245864
-0.91145504 -0.59385294 -0.07370971 -0.8122605 -0.012953728 -0.5831511 0.7968217 6.222806
-0.9086465 -0.5972459 -0.07688205 -0.78684217 -0.079021774 -0.6120743 0.81933284 6.1545196
-0.905838 -0.6006388 -0.08005439 -0.7384222 -0.102153 -0.6665564 0.8418441 6.086232
-0.90274614 -0.6044888 -0.082308546 -0.711133 -0.17195584 -0.6817045 0.86259043 5.975341
-0.8996543 -0.60833883 -0.084562704 -0.6571451 -0.20336139 -0.725813 0.8833369 5.8644485
-0.896398 -0.61249804 -0.08581205 -0.6296834 -0.27471757 -0.72665614 0.9015212 5.715213
-0.8931416 -0.6166572 -0.087061405 -0.5715439 -0.31269684 -0.7586557 0.9197056 5.565978
-0.88984597 -0.6209657 -0.08725795 -0.5456179 -0.38336217 -0.7452077 0.9346292 5.3841343
-0.88655025 -0.62527424 -0.0874545 -0.48490775 -0.42595774 -0.7638223 0.9495528 5.20229
-0.88334185 -0.6295665 -0.08659068 -0.46216756 -0.49371395 -0.73664635 0.96064186 4.994826
-0.8801335 -0.63385874 -0.08572686 -0.40056676 -0.53879076 -0.7411146 0.97173107 4.787362
-0.8771357 -0.6379698 -0.083835855 -0.38253948 -0.60153216 -0.7013007 0.97855973 4.56225
-0.8741379 -0.64208084 -0.08194487 -0.32176164 -0.6468611 -0.69140464 0.9853885 4.3371387
-0.87146586 -0.6458527 -0.07909937 -0.30979317 -0.70267373 -0.6405294 0.98769426 4.10303
-0.86879385 -0.6496246 -0.076253876 -0.25152066 -0.74601483 -0.6166031 0.99 3.8689218
-0.8665503 -0.6529123 -0.07256323 -0.24672544 -0.793252 -0.55666673 0.98769426 3.634813
-0.8643068 -0.65620005 -0.068872586 -0.1925453 -0.83244216 -0.519583 0.9853885 3.4007049
-0.862578 -0.65887725 -0.06447862 -0.19575828 -0.86978537 -0.45293722 0.97855973 3.1755934
-0.86084914 -0.6615545 -0.060084652 -0.14709647 -0.90282017 -0.40407744 0.97173107 2.9504814
-0.85970145 -0.66351837 -0.05515622 -0.15884912 -0.9293325 -0.33332887 0.96064186 2.7430172
-0.85855377 -0.6654823 -0.050227795 -0.11692418 -0.9544455 -0.27452272 0.9495528 2.5355532
-0.85803133 -0.6666573 -0.044954304 -0.13742031 -0.96960634 -0.20243368 0.9346292 2.3537092
-0.8575089 -0.6678323 -0.039680805 -0.10319215 -0.9853349 -0.13589206 0.9197056 2.1718655
-0.85763174 -0.6681734 -0.034264896 -0.1322944 -0.98905843 -0.06528204 0.9015212 2.02263
-0.8577546 -0.66851443 -0.028849002 -0.10642178 -0.99430007 0.0064793983 0.8833369 1.8733947
-0.85851806 -0.6680084 -0.023498815 -0.14366621 -0.9869411 0.07285151 0.86259043 1.7625027
-0.85928154 -0.66750234 -0.018148635 -0.1264913 -0.9809969 0.14712305 0.8418441 1.6516109
-0.86065626 -0.66616863 -0.013069775 -0.17110191 -0.9633349 0.20666432 0.81933284 1.583324
-0.862031 -0.6648349 -0.007990919 -0.16263306 -0.94593394 0.2806412 0.7968217 1.5150371
-0.8639641 -0.6627248 -0.0033785664 -0.21354291 -0.91914856 0.33100665 0.7734108 1.4919794
-0.86589724 -0.66061467 0.0012337863 -0.21344724 -0.8904668 0.401882 0.75 1.4689217
-0.86831456 -0.65780926 0.0052023865 -0.26935574 -0.8560863 0.4410939 0.7265892 1.4919794
-0.87073183 -0.65500385 0.009170987 -0.27698576 -0.81672883 0.5061948 0.7031784 1.5150371
-0.87354034 -0.6516109 0.012343321 -0.33640566 -0.7765598 0.53271574 0.68066716 1.583324
-0.87634885 -0.648218 0.015515659 -0.3508212 -0.7275273 0.58960027 0.65815604 1.6516109
-0.8794407 -0.644368 0.017769817 -0.4121129 -0.68362427 0.6023461 0.63740957 1.7625027
-0.88253254 -0.64051795 0.020023976 -0.43209857 -0.6263191 0.6488568 0.6166632 1.8733947
-0.88578886 -0.63635874 0.02127333 -0.4935628 -0.58086276 0.6472977 0.5984788 2.02263
-0.88904524 -0.6321996 0.022522684 -0.5177002 -0.516984 0.68169945 0.5802944 2.1718655
-0.8923409 -0.62789106 0.02271923 -0.5776285 -0.47221828 0.6658493 0.5653708 2.3537092
-0.8956366 -0.62358254 0.022915773 -0.6043365 -0.40372318 0.6868661 0.55044734 2.5355532
-0.898845 -0.6192903 0.022051949 -0.661079 -0.36186665 0.6572878 0.53935814 2.7430172
-0.90205336 -0.61499804 0.021188129 -0.6886775 -0.29089016 0.66415834 0.52826893 2.9504814
-0.9050512 -0.610887 0.019297134 -0.7407076 -0.25405005 0.6219413 0.52144027 3.1755934
-0.908049 -0.60677594 0.01740614 -0.7674836 -0.18282267 0.6144468 0.5146116 3.4007049
-0.910721 -0.6030041 0.014560647 -0.81345403 -0.15290833 0.56117 0.51230574 3.634813
-0.913393 -0.5992322 0.011715151 -0.83772385 -0.08366638 0.53964674 0.51 3.8689218
-0.91563654 -0.59594446 0.008024506 -0.8765225 -0.062329262 0.4773087 0.51230574 4.10303
-0.91788006 -0.59265673 0.0043338574 -0.8967013 0.0027600226 0.4426276 0.5146116 4.3371387
-0.9196089 -0.5899795 -6.010756e-05 -0.9274896 0.014204025 0.37357914 0.52144027 4.56225
-0.9213377 -0.58730227 -0.0044540726 -0.9421478 0.07313913 0.32712117 0.52826893 4.787362
-0.9224854 -0.5853384 -0.009382505 -0.9643959 0.07375299 0.25397044 0.53935814 4.994826
-0.9236331 -0.5833745 -0.014310934 -0.9723172 0.12476659 0.19756669 0.55044734 5.20229
-0.92415553 -0.58219945 -0.019584421 -0.9858247 0.11402671 0.12307523 0.5653708 5.3841343
-0.92467797 -0.58102447 -0.02485792 -0.986052 0.15565398 0.05893585 0.5802944 5.565978
-0.9245551 -0.5806834 -0.030273829 -0.9909519 0.133478 -0.014076458 0.5984788 5.715213
-0.9244323 -0.58034235 -0.035689723 -0.982822 0.16461939 -0.08343558 0.6166632 5.8644485
-0.9236688 -0.5808484 -0.04103991 -0.97957975 0.13136092 -0.15220997 0.63740957 5.975341
-0.9229053 -0.58135444 -0.04639009 -0.9627522 0.15131634 -0.22407922 0.65815604 6.086232
-0.9215306 -0.58268815 -0.05146895 -0.952145 0.10775396 -0.2860228 0.68066716 6.1545196
-0.9201559 -0.58402187 -0.05654781 -0.9266118 0.1162525 -0.35759744 0.7031784 6.222806
4 0 1 2 3
4 1 4 5 2
4 2 5 6 7
4 3 2 7 8
4 8 7 9 10
4 7 6 11 9
4 9 11 12 13
4 10 9 13 14
4 14 13 15 16
4 13 12 17 15
4 15 17 18 19
4 16 15 19 20
4 20 19 21 22
4 19 18 23 21
4 21 23 24 25
4 22 21 25 26
4 26 25 27 28
4 25 24 29 27
4 27 29 30 31
4 28 27 31 32
4 32 31 33 34
4 31 30 35 33
4 33 35 36 37
4 34 33 37 38
4 38 37 39 40
4 37 36 41 39
4 39 41 42 43
4 40 39 43 44
4 44 43 45 46
4 43 42 47 45
4 45 47 48 49
4 46 45 49 50
4 50 49 51 52
4 49 48 53 51
4 51 53 54 55
4 52 51 55 56
4 56 55 57 58
4 55 54 59 57
4 57 59 60 61
4 58 57 61 62
4 62 61 63 64
4 61 60 65 63
4 63 65 66 67
4 64 63 67 68
4 68 67 69 70
4 67 66 71 69
4 69 71 72 73
4 70 69 73 74
4 74 73 75 76
4 73 72 77 75
4 75 77 78 79
4 76 75 79 80
4 80 79 81 82
4 79 78 83 81
4 81 83 84 85
4 82 81 85 86
4 86 85 87 88
4 85 84 89 87
4 87 89 90 91
4 88 87 91 92
4 92 91 93 94
4 91 90 95 93
4 93 95 96 97
4 94 93 97 98
4 98 97 99 100
4 97 96 101 99
4 99 101 102 103
4 100 99 103 104
4 104 103 105 106
4 103 102 107 105
4 105 107 108 109
4 106 105 109 110
4 110 109 111 112
4 109 108 113 111
4 111 113 114 115
4 112 111 115 116
4 116 115 117 118
4 115 114 119 117
4 117 119 120 121
4 118 117 121 122
4 122 121 123 124
4 121 120 125 123
4 123 125 126 127
4 124 123 127 128
4 128 127 129 130
4 127 126 131 129
4 129 131 132 133
4 130 129 133 134
4 134 133 135 136
4 133 132 137 135
4 135 137 138 139
4 136 135 139 140
4 140 139 141 142
4 139 138 143 141
4 141 143 144 145
4 142 141 145 146
4 146 145 147 148
4 145 144 149 147
4 147 149 150 151
4 148 147 151 152
4 152 151 153 154
4 151 150 155 153
4 153 155 156 157
4 154 153 157 158
4 158 157 159 160
4 157 156 161 159
4 159 161 162 163
4 160 159 163 164
4 164 163 165 166
4 163 162 167 165
4 165 167 168 169
4 166 165 169 170
4 170 169 171 172
4 169 168 173 171
4 171 173 174 175
4 172 171 175 176
4 176 175 177 178
4 175 174 179 177
4 177 179 180 181
4 178 177 181 182
4 183 184 185 186
4 187 188 185 184
4 189 190 185 188
4 191 192 185 190
4 193 194 185 192
4 195 196 185 194
4 197 198 185 196
4 199 200 185 198
4 201 202 185 200
4 203 204 185 202
4 205 206 185 204
4 207 208 185 206
4 209 210 185 208
4 211 212 185 210
4 213 214 185 212
4 215 216 185 214
4 217 218 185 216
4 219 220 185 218
4 221 222 185 220
4 223 224 185 222
4 225 226 185 224
4 227 228 185 226
4 229 230 185 228
4 231 232 185 230
4 233 234 185 232
4 235 236 185 234
4 237 238 185 236
4 239 240 185 238
4 241 242 185 240
4 243 244 185 242
4 245 246 185 244
4 247 186 185 246
4 182 181 248 249
4 181 180 250 248
4 248 250 251 252
4 249 248 252 253
4 253 252 254 255
4 252 251 256 254
4 254 256 257 258
4 255 254 258 259
4 260 261 262 263
4 264 265 262 261
4 266 267 262 265
4 268 269 262 267
4 270 271 262 269
4 272 273 262 271
4 274 275 262 273
4 276 277 262 275
4 278 279 262 277
4 280 281 262 279
4 282 283 262 281
4 284 285 262 283
4 286 287 262 285
4 288 289 262 287
4 290 291 262 289
4 292 293 262 291
4 294 295 262 293
4 296 297 262 295
4 298 299 262 297
4 300 301 262 299
4 302 303 262 301
4 304 305 262 303
4 306 307 262 305
4 308 309 262 307
4 310 311 262 309
4 312 313 262 311
4 314 315 262 313
4 316 317 262 315
4 318 319 262 317
4 320 321 262 319
4 322 323 262 321
4 324 263 262 323
