ply
format ascii 1.0
comment Created in Blender version 4.2.3 LTS
element vertex 130
property float x
property float y
property float z
property float nx
property float ny
property float nz
property float s
property float t
element face 34
property list uchar uint vertex_indices
end_header
0.04644553 -0.5666361 1.518381 -0.09801733 0.99518466 -5.3625686e-09 1 0.5
0.046445657 -0.5666361 -0.78161895 -0.09801733 0.99518466 -5.3625686e-09 1 1
0.03561815 -0.56770253 -0.78161895 -0.19509044 0.9807852 -1.0735379e-08 0.96875 1
0.035618022 -0.56770253 1.518381 -0.19509044 0.9807852 -1.0735379e-08 0.96875 0.5
0.025206733 -0.5708608 -0.78161895 -0.38268363 0.9238794 -2.0702242e-08 0.9375 1
0.025206607 -0.5708608 1.518381 -0.38268363 0.9238795 -2.0702242e-08 0.9375 0.5
0.01561152 -0.57598954 -0.78161895 -0.5555703 0.8314695 -2.988503e-08 0.90625 1
0.015611395 -0.57598954 1.518381 -0.55557024 0.8314696 -2.9885022e-08 0.90625 0.5
0.007201243 -0.5828917 -0.78161895 -0.70710695 0.7071066 -3.8625867e-08 0.875 1
0.0072011203 -0.5828917 1.518381 -0.70710695 0.7071066 -3.8625867e-08 0.875 0.5
0.000299111 -0.591302 -0.78161895 -0.83146983 0.55557 -4.477517e-08 0.84375 1
0.00029898807 -0.591302 1.518381 -0.83146983 0.55557 -4.477517e-08 0.84375 0.5
-0.0048296377 -0.6008972 -0.78161895 -0.92387956 0.3826833 -4.959203e-08 0.8125 1
-0.0048297606 -0.6008972 1.518381 -0.92387956 0.3826833 -4.959203e-08 0.8125 0.5
-0.007987905 -0.6113086 -0.78161895 -0.98078525 0.1950903 -5.316834e-08 0.78125 1
-0.007988028 -0.6113086 1.518381 -0.98078525 0.1950903 -5.316834e-08 0.78125 0.5
-0.009054322 -0.6221361 -0.78161895 -1 0 -5.389905e-08 0.75 1
-0.009054445 -0.6221361 1.518381 -1 0 -5.389905e-08 0.75 0.5
-0.007987905 -0.63296366 -0.78161895 -0.98078525 -0.1950903 -5.316834e-08 0.71875 1
-0.007988028 -0.63296366 1.518381 -0.98078525 -0.1950903 -5.316834e-08 0.71875 0.5
-0.0048296377 -0.64337504 -0.78161895 -0.92387956 -0.3826833 -4.959203e-08 0.6875 1
-0.0048297606 -0.64337504 1.518381 -0.92387956 -0.3826833 -4.959203e-08 0.6875 0.5
0.000299111 -0.65297025 -0.78161895 -0.83146983 -0.55557 -4.477517e-08 0.65625 1
0.00029898807 -0.65297025 1.518381 -0.83146983 -0.55557 -4.477517e-08 0.65625 0.5
0.007201243 -0.6613805 -0.78161895 -0.70710695 -0.7071066 -3.8625867e-08 0.625 1
0.0072011203 -0.6613805 1.518381 -0.70710695 -0.7071066 -3.8625867e-08 0.625 0.5
0.01561152 -0.6682827 -0.78161895 -0.5555703 -0.8314695 -2.988503e-08 0.59375 1
0.015611395 -0.6682827 1.518381 -0.55557024 -0.8314696 -2.9885022e-08 0.59375 0.5
0.025206733 -0.6734114 -0.78161895 -0.38268363 -0.9238794 -2.0702242e-08 0.5625 1
0.025206607 -0.6734114 1.518381 -0.38268363 -0.9238795 -2.0702242e-08 0.5625 0.5
0.03561815 -0.6765697 -0.78161895 -0.19509044 -0.9807852 -1.0735379e-08 0.53125 1
0.035618022 -0.6765697 1.518381 -0.19509044 -0.9807852 -1.0735379e-08 0.53125 0.5
0.046445657 -0.67763615 -0.78161895 -9.53228e-09 -1 -5.8256565e-16 0.5 1
0.04644553 -0.67763615 1.518381 9.53228e-09 -1 5.8256565e-16 0.5 0.5
0.057273164 -0.6765697 -0.78161895 0.19509044 -0.9807852 1.0735379e-08 0.46875 1
0.057273038 -0.6765697 1.518381 0.19509044 -0.9807852 1.0735379e-08 0.46875 0.5
0.067684576 -0.6734114 -0.78161895 0.38268363 -0.9238795 2.0702242e-08 0.4375 1
0.06768446 -0.6734114 1.518381 0.38268363 -0.9238794 2.0702242e-08 0.4375 0.5
0.07727979 -0.6682827 -0.78161895 0.55557024 -0.8314696 2.9885022e-08 0.40625 1
0.077279665 -0.6682827 1.518381 0.5555703 -0.8314695 2.988503e-08 0.40625 0.5
0.085690066 -0.6613805 -0.78161895 0.70710695 -0.7071066 3.8625867e-08 0.375 1
0.08568995 -0.6613805 1.518381 0.70710695 -0.7071066 3.8625867e-08 0.375 0.5
0.092592195 -0.65297025 -0.78161895 0.83146983 -0.55557 4.477517e-08 0.34375 1
0.092592075 -0.65297025 1.518381 0.83146983 -0.55557 4.477517e-08 0.34375 0.5
0.09772095 -0.64337504 -0.78161895 0.92387956 -0.3826833 4.959203e-08 0.3125 1
0.097720824 -0.64337504 1.518381 0.92387956 -0.3826833 4.959203e-08 0.3125 0.5
0.100879215 -0.63296366 -0.78161895 0.98078525 -0.1950903 5.316834e-08 0.28125 1
0.10087909 -0.63296366 1.518381 0.98078525 -0.1950903 5.316834e-08 0.28125 0.5
0.10194563 -0.6221361 -0.78161895 1 0 5.389905e-08 0.25 1
0.101945505 -0.6221361 1.518381 1 0 5.389905e-08 0.25 0.5
0.100879215 -0.6113086 -0.78161895 0.98078525 0.1950903 5.316834e-08 0.21875 1
0.10087909 -0.6113086 1.518381 0.98078525 0.1950903 5.316834e-08 0.21875 0.5
0.09772095 -0.6008972 -0.78161895 0.92387956 0.3826833 4.959203e-08 0.1875 1
0.097720824 -0.6008972 1.518381 0.92387956 0.3826833 4.959203e-08 0.1875 0.5
0.092592195 -0.591302 -0.78161895 0.83146983 0.55557 4.477517e-08 0.15625 1
0.092592075 -0.591302 1.518381 0.83146983 0.55557 4.477517e-08 0.15625 0.5
0.085690066 -0.5828917 -0.78161895 0.70710695 0.7071066 3.8625867e-08 0.125 1
0.08568995 -0.5828917 1.518381 0.70710695 0.7071066 3.8625867e-08 0.125 0.5
0.07727979 -0.57598954 -0.78161895 0.55557024 0.8314696 2.9885022e-08 0.09375 1
0.077279665 -0.57598954 1.518381 0.5555703 0.8314695 2.988503e-08 0.09375 0.5
0.067684576 -0.5708608 -0.78161895 0.38268363 0.9238795 2.0702242e-08 0.0625 1
0.06768446 -0.5708608 1.518381 0.38268363 0.9238794 2.0702242e-08 0.0625 0.5
0.03561815 -0.56770253 -0.78161895 7.54979e-08 -2.4729152e-07 -1 0.29682168 0.48538846
0.046445657 -0.5666361 -0.78161895 7.54979e-08 -2.4729152e-07 -1 0.25 0.49
0.057273164 -0.56770253 -0.78161895 7.54979e-08 -2.4729152e-07 -1 0.20317832 0.48538846
0.067684576 -0.5708608 -0.78161895 7.54979e-08 -2.4729152e-07 -1 0.15815598 0.47173107
0.07727979 -0.57598954 -0.78161895 7.54979e-08 -2.4729152e-07 -1 0.11666316 0.44955269
0.085690066 -0.5828917 -0.78161895 7.54979e-08 -2.4729152e-07 -1 0.08029437 0.41970563
0.092592195 -0.591302 -0.78161895 7.54979e-08 -2.4729152e-07 -1 0.050447315 0.38333684
0.09772095 -0.6008972 -0.78161895 7.54979e-08 -2.4729152e-07 -1 0.028268933 0.34184402
0.100879215 -0.6113086 -0.78161895 7.54979e-08 -2.4729152e-07 -1 0.014611557 0.29682168
0.10194563 -0.6221361 -0.78161895 7.54979e-08 -2.4729152e-07 -1 0.010000005 0.25
0.100879215 -0.63296366 -0.78161895 7.54979e-08 -2.4729152e-07 -1 0.014611557 0.20317832
0.09772095 -0.64337504 -0.78161895 7.54979e-08 -2.4729152e-07 -1 0.028268933 0.15815598
0.092592195 -0.65297025 -0.78161895 7.54979e-08 -2.4729152e-07 -1 0.050447315 0.11666316
0.085690066 -0.6613805 -0.78161895 7.54979e-08 -2.4729152e-07 -1 0.08029437 0.08029437
0.07727979 -0.6682827 -0.78161895 7.54979e-08 -2.4729152e-07 -1 0.11666316 0.050447315
0.067684576 -0.6734114 -0.78161895 7.54979e-08 -2.4729152e-07 -1 0.15815598 0.028268933
0.057273164 -0.6765697 -0.78161895 7.54979e-08 -2.4729152e-07 -1 0.20317832 0.014611557
0.046445657 -0.67763615 -0.78161895 7.54979e-08 -2.4729152e-07 -1 0.25 0.010000005
0.03561815 -0.6765697 -0.78161895 7.54979e-08 -2.4729152e-07 -1 0.29682168 0.014611557
0.025206733 -0.6734114 -0.78161895 7.54979e-08 -2.4729152e-07 -1 0.34184402 0.028268933
0.01561152 -0.6682827 -0.78161895 7.54979e-08 -2.4729152e-07 -1 0.38333684 0.050447315
0.007201243 -0.6613805 -0.78161895 7.54979e-08 -2.4729152e-07 -1 0.41970563 0.08029437
0.000299111 -0.65297025 -0.78161895 7.54979e-08 -2.4729152e-07 -1 0.44955269 0.11666316
-0.0048296377 -0.64337504 -0.78161895 7.54979e-08 -2.4729152e-07 -1 0.47173107 0.15815598
-0.007987905 -0.63296366 -0.78161895 7.54979e-08 -2.4729152e-07 -1 0.48538846 0.20317832
-0.009054322 -0.6221361 -0.78161895 7.54979e-08 -2.4729152e-07 -1 0.49 0.25
-0.007987905 -0.6113086 -0.78161895 7.54979e-08 -2.4729152e-07 -1 0.48538846 0.29682168
-0.0048296377 -0.6008972 -0.78161895 7.54979e-08 -2.4729152e-07 -1 0.47173107 0.34184402
0.000299111 -0.591302 -0.78161895 7.54979e-08 -2.4729152e-07 -1 0.44955269 0.38333684
0.007201243 -0.5828917 -0.78161895 7.54979e-08 -2.4729152e-07 -1 0.41970563 0.41970563
0.01561152 -0.57598954 -0.78161895 7.54979e-08 -2.4729152e-07 -1 0.38333684 0.44955269
0.025206733 -0.5708608 -0.78161895 7.54979e-08 -2.4729152e-07 -1 0.34184402 0.47173107
0.057273164 -0.56770253 -0.78161895 0.19509044 0.9807852 1.0735379e-08 0.03125 1
0.057273038 -0.56770253 1.518381 0.19509044 0.9807852 1.0735379e-08 0.03125 0.5
0.046445657 -0.5666361 -0.78161895 0.09801733 0.99518466 5.3625686e-09 0 1
0.04644553 -0.5666361 1.518381 0.09801733 0.99518466 5.3625686e-09 0 0.5
0.04644553 -0.5666361 1.518381 -7.54979e-08 8.6552035e-07 1 0.75 0.49
0.035618022 -0.56770253 1.518381 -7.54979e-08 8.6552035e-07 1 0.79682165 0.48538846
0.025206607 -0.5708608 1.518381 -7.54979e-08 8.6552035e-07 1 0.841844 0.47173107
0.015611395 -0.57598954 1.518381 -7.54979e-08 8.655204e-07 1 0.88333684 0.44955269
0.0072011203 -0.5828917 1.518381 -7.54979e-08 8.6552035e-07 1 0.9197056 0.41970563
0.00029898807 -0.591302 1.518381 -7.54979e-08 8.655204e-07 1 0.94955266 0.38333684
-0.0048297606 -0.6008972 1.518381 -7.54979e-08 8.6552035e-07 1 0.97173107 0.34184402
-0.007988028 -0.6113086 1.518381 -7.54979e-08 8.6552035e-07 1 0.98538846 0.29682168
-0.009054445 -0.6221361 1.518381 -7.54979e-08 8.6552035e-07 1 0.99 0.25
-0.007988028 -0.63296366 1.518381 -7.54979e-08 8.6552035e-07 1 0.98538846 0.20317832
-0.0048297606 -0.64337504 1.518381 -7.54979e-08 8.6552035e-07 1 0.97173107 0.15815598
0.00029898807 -0.65297025 1.518381 -7.54979e-08 8.655204e-07 1 0.94955266 0.11666316
0.0072011203 -0.6613805 1.518381 -7.54979e-08 8.6552035e-07 1 0.9197056 0.08029437
0.015611395 -0.6682827 1.518381 -7.54979e-08 8.655204e-07 1 0.88333684 0.050447315
0.025206607 -0.6734114 1.518381 -7.54979e-08 8.6552035e-07 1 0.841844 0.028268933
0.035618022 -0.6765697 1.518381 -7.54979e-08 8.6552035e-07 1 0.79682165 0.014611557
0.04644553 -0.67763615 1.518381 -7.54979e-08 8.6552035e-07 1 0.75 0.010000005
0.057273038 -0.6765697 1.518381 -7.54979e-08 8.6552035e-07 1 0.70317835 0.014611557
0.06768446 -0.6734114 1.518381 -7.54979e-08 8.655204e-07 1 0.658156 0.028268933
0.077279665 -0.6682827 1.518381 -7.54979e-08 8.655204e-07 1 0.61666316 0.050447315
0.08568995 -0.6613805 1.518381 -7.54979e-08 8.6552035e-07 1 0.5802944 0.08029437
0.092592075 -0.65297025 1.518381 -7.54979e-08 8.655204e-07 1 0.55044734 0.11666316
0.097720824 -0.64337504 1.518381 -7.54979e-08 8.6552035e-07 1 0.52826893 0.15815598
0.10087909 -0.63296366 1.518381 -7.54979e-08 8.6552035e-07 1 0.51461154 0.20317832
0.101945505 -0.6221361 1.518381 -7.54979e-08 8.6552035e-07 1 0.51 0.25
0.10087909 -0.6113086 1.518381 -7.54979e-08 8.6552035e-07 1 0.51461154 0.29682168
0.097720824 -0.6008972 1.518381 -7.54979e-08 8.6552035e-07 1 0.52826893 0.34184402
0.092592075 -0.591302 1.518381 -7.54979e-08 8.655204e-07 1 0.55044734 0.38333684
0.08568995 -0.5828917 1.518381 -7.54979e-08 8.6552035e-07 1 0.5802944 0.41970563
0.077279665 -0.57598954 1.518381 -7.54979e-08 8.655204e-07 1 0.61666316 0.44955269
0.06768446 -0.5708608 1.518381 -7.54979e-08 8.655204e-07 1 0.658156 0.47173107
0.057273038 -0.56770253 1.518381 -7.54979e-08 8.6552035e-07 1 0.70317835 0.48538846
4 0 1 2 3
4 3 2 4 5
4 5 4 6 7
4 7 6 8 9
4 9 8 10 11
4 11 10 12 13
4 13 12 14 15
4 15 14 16 17
4 17 16 18 19
4 19 18 20 21
4 21 20 22 23
4 23 22 24 25
4 25 24 26 27
4 27 26 28 29
4 29 28 30 31
4 31 30 32 33
4 33 32 34 35
4 35 34 36 37
4 37 36 38 39
4 39 38 40 41
4 41 40 42 43
4 43 42 44 45
4 45 44 46 47
4 47 46 48 49
4 49 48 50 51
4 51 50 52 53
4 53 52 54 55
4 55 54 56 57
4 57 56 58 59
4 59 58 60 61
32 62 63 64 65 66 67 68 69 70 71 72 73 74 75 76 77 78 79 80 81 82 83 84 85 86 87 88 89 90 91 92 93
4 61 60 94 95
4 95 94 96 97
32 98 99 100 101 102 103 104 105 106 107 108 109 110 111 112 113 114 115 116 117 118 119 120 121 122 123 124 125 126 127 128 129
