ply
format ascii 1.0
comment Created in Blender version 4.2.3 LTS
element vertex 130
property float x
property float y
property float z
property float nx
property float ny
property float nz
property float s
property float t
element face 34
property list uchar uint vertex_indices
end_header
0 1161.2501 55.37856 0 0.6857013 0.7278831 1 0.5
0 -1161.2501 55.378456 0 -0.6857015 0.7278829 1 1
10.80381 -1161.2501 54.31437 0.14200294 -0.68570167 0.71389663 0.96875 1
10.80381 1161.2501 54.314472 0.14200293 0.6857015 0.7138969 0.96875 0.5
21.192436 -1161.2501 51.163017 0.2785486 -0.68570155 0.6724761 0.9375 1
21.192436 1161.2501 51.16312 0.27854857 0.6857014 0.67247635 0.9375 0.5
30.766647 -1161.2501 46.045494 0.40439016 -0.68570155 0.60521233 0.90625 1
30.766647 1161.2501 46.045597 0.40439007 0.6857015 0.60521257 0.90625 0.5
39.158512 -1161.2501 39.158463 0.514691 -0.6857016 0.51469076 0.875 1
39.158512 1161.2501 39.15857 0.5146909 0.68570143 0.5146911 0.875 0.5
46.04554 -1161.2501 30.766602 0.60521245 -0.6857015 0.4043901 0.84375 1
46.04554 1161.2501 30.7667 0.60521233 0.68570143 0.40439042 0.84375 0.5
51.163063 -1161.2501 21.192389 0.672476 -0.68570155 0.2785487 0.8125 1
51.163063 1161.2501 21.192488 0.67247593 0.68570155 0.27854902 0.8125 0.5
54.31442 -1161.2501 10.80376 0.7138967 -0.68570167 0.14200291 0.78125 1
54.31442 1161.2501 10.803862 0.71389663 0.68570167 0.14200325 0.78125 0.5
55.3785 -1161.2501 -5.0759852e-05 0.72788274 -0.68570167 -3.4691894e-09 0.75 1
55.3785 1161.2501 5.0759852e-05 0.72788274 0.68570167 3.532268e-07 0.75 0.5
54.31442 -1161.2501 -10.803862 0.7138967 -0.68570167 -0.14200291 0.71875 1
54.31442 1161.2501 -10.80376 0.7138967 0.68570167 -0.14200257 0.71875 0.5
51.163063 -1161.2501 -21.192488 0.672476 -0.68570167 -0.2785487 0.6875 1
51.163063 1161.2501 -21.192389 0.6724761 0.68570167 -0.2785484 0.6875 0.5
46.04554 -1161.2501 -30.7667 0.6052124 -0.68570155 -0.4043901 0.65625 1
46.04554 1161.2501 -30.766602 0.60521257 0.6857016 -0.4043898 0.65625 0.5
39.158512 -1161.2501 -39.15857 0.51469094 -0.68570155 -0.5146908 0.625 1
39.158512 1161.2501 -39.158463 0.51469105 0.6857017 -0.5146905 0.625 0.5
30.766647 -1161.2501 -46.045597 0.40439013 -0.6857016 -0.6052123 0.59375 1
30.766647 1161.2501 -46.045494 0.40439025 0.68570167 -0.60521215 0.59375 0.5
21.192436 -1161.2501 -51.16312 0.27854863 -0.6857015 -0.6724762 0.5625 1
21.192436 1161.2501 -51.163017 0.27854866 0.68570167 -0.67247593 0.5625 0.5
10.80381 -1161.2501 -54.314472 0.14200296 -0.6857016 -0.7138967 0.53125 1
10.80381 1161.2501 -54.31437 0.14200297 0.68570185 -0.71389645 0.53125 0.5
0 -1161.2501 -55.37856 0 -0.6857015 -0.7278829 0.5 1
0 1161.2501 -55.378456 0 0.68570167 -0.7278827 0.5 0.5
-10.80381 -1161.2501 -54.314472 -0.14200296 -0.6857016 -0.7138967 0.46875 1
-10.80381 1161.2501 -54.31437 -0.14200297 0.68570185 -0.71389645 0.46875 0.5
-21.192436 -1161.2501 -51.16312 -0.27854863 -0.6857015 -0.6724762 0.4375 1
-21.192436 1161.2501 -51.163017 -0.27854866 0.68570167 -0.67247593 0.4375 0.5
-30.766647 -1161.2501 -46.045597 -0.40439013 -0.6857016 -0.6052123 0.40625 1
-30.766647 1161.2501 -46.045494 -0.40439025 0.68570167 -0.60521215 0.40625 0.5
-39.158512 -1161.2501 -39.15857 -0.51469094 -0.68570155 -0.5146908 0.375 1
-39.158512 1161.2501 -39.158463 -0.51469105 0.6857017 -0.5146905 0.375 0.5
-46.04554 -1161.2501 -30.7667 -0.6052124 -0.68570155 -0.4043901 0.34375 1
-46.04554 1161.2501 -30.766602 -0.60521257 0.6857016 -0.4043898 0.34375 0.5
-51.163063 -1161.2501 -21.192488 -0.672476 -0.68570167 -0.2785487 0.3125 1
-51.163063 1161.2501 -21.192389 -0.6724761 0.68570167 -0.2785484 0.3125 0.5
-54.31442 -1161.2501 -10.803862 -0.7138967 -0.68570167 -0.14200291 0.28125 1
-54.31442 1161.2501 -10.80376 -0.7138967 0.68570167 -0.14200257 0.28125 0.5
-55.3785 -1161.2501 -5.0759852e-05 -0.72788274 -0.68570167 -3.4691894e-09 0.25 1
-55.3785 1161.2501 5.0759852e-05 -0.72788274 0.68570167 3.532268e-07 0.25 0.5
-54.31442 -1161.2501 10.80376 -0.7138967 -0.68570167 0.14200291 0.21875 1
-54.31442 1161.2501 10.803862 -0.71389663 0.68570167 0.14200325 0.21875 0.5
-51.163063 -1161.2501 21.192389 -0.672476 -0.68570155 0.2785487 0.1875 1
-51.163063 1161.2501 21.192488 -0.67247593 0.68570155 0.27854902 0.1875 0.5
-46.04554 -1161.2501 30.766602 -0.60521245 -0.6857015 0.4043901 0.15625 1
-46.04554 1161.2501 30.7667 -0.60521233 0.68570143 0.40439042 0.15625 0.5
-39.158512 -1161.2501 39.158463 -0.514691 -0.6857016 0.51469076 0.125 1
-39.158512 1161.2501 39.15857 -0.5146909 0.68570143 0.5146911 0.125 0.5
-30.766647 -1161.2501 46.045494 -0.40439016 -0.68570155 0.60521233 0.09375 1
-30.766647 1161.2501 46.045597 -0.40439007 0.6857015 0.60521257 0.09375 0.5
-21.192436 -1161.2501 51.163017 -0.2785486 -0.6857015 0.6724761 0.0625 1
-21.192436 1161.2501 51.16312 -0.27854857 0.6857014 0.67247635 0.0625 0.5
10.80381 -1161.2501 54.31437 0.14200294 -0.68570167 0.71389663 0.29682168 0.48538846
0 -1161.2501 55.378456 0 -0.6857015 0.7278829 0.25 0.49
-10.80381 -1161.2501 54.31437 -0.14200296 -0.68570167 0.7138967 0.20317832 0.48538846
-21.192436 -1161.2501 51.163017 -0.2785486 -0.6857015 0.6724761 0.15815598 0.47173107
-30.766647 -1161.2501 46.045494 -0.40439016 -0.68570155 0.60521233 0.11666314 0.4495527
-39.158512 -1161.2501 39.158463 -0.514691 -0.6857016 0.51469076 0.080294386 0.41970563
-46.04554 -1161.2501 30.766602 -0.60521245 -0.6857015 0.4043901 0.0504473 0.38333684
-51.163063 -1161.2501 21.192389 -0.672476 -0.68570155 0.2785487 0.028268918 0.34184402
-54.31442 -1161.2501 10.80376 -0.7138967 -0.68570167 0.14200291 0.014611542 0.29682168
-55.3785 -1161.2501 -5.0759852e-05 -0.72788274 -0.68570167 -3.4691894e-09 0.010000005 0.25
-54.31442 -1161.2501 -10.803862 -0.7138967 -0.68570167 -0.14200291 0.014611542 0.20317832
-51.163063 -1161.2501 -21.192488 -0.672476 -0.68570167 -0.2785487 0.028268918 0.15815598
-46.04554 -1161.2501 -30.7667 -0.6052124 -0.68570155 -0.4043901 0.0504473 0.11666314
-39.158512 -1161.2501 -39.15857 -0.51469094 -0.68570155 -0.5146908 0.080294386 0.080294386
-30.766647 -1161.2501 -46.045597 -0.40439013 -0.6857016 -0.6052123 0.11666314 0.0504473
-21.192436 -1161.2501 -51.16312 -0.27854863 -0.6857015 -0.6724762 0.15815598 0.028268918
-10.80381 -1161.2501 -54.314472 -0.14200296 -0.6857016 -0.7138967 0.20317832 0.014611542
0 -1161.2501 -55.37856 0 -0.6857015 -0.7278829 0.25 0.010000005
10.80381 -1161.2501 -54.314472 0.14200296 -0.6857016 -0.7138967 0.29682168 0.014611542
21.192436 -1161.2501 -51.16312 0.27854863 -0.6857015 -0.6724762 0.34184402 0.028268918
30.766647 -1161.2501 -46.045597 0.40439013 -0.6857016 -0.6052123 0.38333684 0.0504473
39.158512 -1161.2501 -39.15857 0.51469094 -0.68570155 -0.5146908 0.41970563 0.080294386
46.04554 -1161.2501 -30.7667 0.6052124 -0.68570155 -0.4043901 0.4495527 0.11666314
51.163063 -1161.2501 -21.192488 0.672476 -0.68570167 -0.2785487 0.47173107 0.15815598
54.31442 -1161.2501 -10.803862 0.7138967 -0.68570167 -0.14200291 0.48538846 0.20317832
55.3785 -1161.2501 -5.0759852e-05 0.72788274 -0.68570167 -3.4691894e-09 0.49 0.25
54.31442 -1161.2501 10.80376 0.7138967 -0.68570167 0.14200291 0.48538846 0.29682168
51.163063 -1161.2501 21.192389 0.672476 -0.68570155 0.2785487 0.47173107 0.34184402
46.04554 -1161.2501 30.766602 0.60521245 -0.6857015 0.4043901 0.4495527 0.38333684
39.158512 -1161.2501 39.158463 0.514691 -0.6857016 0.51469076 0.41970563 0.41970563
30.766647 -1161.2501 46.045494 0.40439016 -0.68570155 0.60521233 0.38333684 0.4495527
21.192436 -1161.2501 51.163017 0.2785486 -0.68570155 0.6724761 0.34184402 0.47173107
-10.80381 -1161.2501 54.31437 -0.14200296 -0.68570167 0.7138967 0.03125 1
-10.80381 1161.2501 54.314472 -0.14200293 0.6857015 0.7138969 0.03125 0.5
0 -1161.2501 55.378456 0 -0.6857015 0.7278829 0 1
0 1161.2501 55.37856 0 0.6857013 0.7278831 0 0.5
0 1161.2501 55.37856 0 0.6857013 0.7278831 0.75 0.49
10.80381 1161.2501 54.314472 0.14200293 0.6857015 0.7138969 0.79682165 0.48538846
21.192436 1161.2501 51.16312 0.27854857 0.6857014 0.67247635 0.841844 0.47173107
30.766647 1161.2501 46.045597 0.40439007 0.6857015 0.60521257 0.88333684 0.4495527
39.158512 1161.2501 39.15857 0.5146909 0.68570143 0.5146911 0.9197056 0.41970563
46.04554 1161.2501 30.7667 0.60521233 0.68570143 0.40439042 0.9495527 0.38333684
51.163063 1161.2501 21.192488 0.67247593 0.68570155 0.27854902 0.97173107 0.34184402
54.31442 1161.2501 10.803862 0.71389663 0.68570167 0.14200325 0.98538846 0.29682168
55.3785 1161.2501 5.0759852e-05 0.72788274 0.68570167 3.532268e-07 0.99 0.25
54.31442 1161.2501 -10.80376 0.7138967 0.68570167 -0.14200257 0.98538846 0.20317832
51.163063 1161.2501 -21.192389 0.6724761 0.68570167 -0.2785484 0.97173107 0.15815598
46.04554 1161.2501 -30.766602 0.60521257 0.6857016 -0.4043898 0.9495527 0.11666314
39.158512 1161.2501 -39.158463 0.51469105 0.6857017 -0.5146905 0.9197056 0.080294386
30.766647 1161.2501 -46.045494 0.40439025 0.68570167 -0.60521215 0.88333684 0.0504473
21.192436 1161.2501 -51.163017 0.27854866 0.68570167 -0.67247593 0.841844 0.028268918
10.80381 1161.2501 -54.31437 0.14200297 0.68570185 -0.71389645 0.79682165 0.014611542
0 1161.2501 -55.378456 0 0.68570167 -0.7278827 0.75 0.010000005
-10.80381 1161.2501 -54.31437 -0.14200297 0.68570185 -0.71389645 0.70317835 0.014611542
-21.192436 1161.2501 -51.163017 -0.27854866 0.68570167 -0.67247593 0.658156 0.028268918
-30.766647 1161.2501 -46.045494 -0.40439025 0.68570167 -0.60521215 0.61666316 0.0504473
-39.158512 1161.2501 -39.158463 -0.51469105 0.6857017 -0.5146905 0.5802944 0.080294386
-46.04554 1161.2501 -30.766602 -0.60521257 0.6857016 -0.4043898 0.5504473 0.11666314
-51.163063 1161.2501 -21.192389 -0.6724761 0.68570167 -0.2785484 0.52826893 0.15815598
-54.31442 1161.2501 -10.80376 -0.7138967 0.68570167 -0.14200257 0.51461154 0.20317832
-55.3785 1161.2501 5.0759852e-05 -0.72788274 0.68570167 3.532268e-07 0.51 0.25
-54.31442 1161.2501 10.803862 -0.71389663 0.68570167 0.14200325 0.51461154 0.29682168
-51.163063 1161.2501 21.192488 -0.67247593 0.68570155 0.27854902 0.52826893 0.34184402
-46.04554 1161.2501 30.7667 -0.60521233 0.68570143 0.40439042 0.5504473 0.38333684
-39.158512 1161.2501 39.15857 -0.5146909 0.68570143 0.5146911 0.5802944 0.41970563
-30.766647 1161.2501 46.045597 -0.40439007 0.6857015 0.60521257 0.61666316 0.4495527
-21.192436 1161.2501 51.16312 -0.27854857 0.6857014 0.67247635 0.658156 0.47173107
-10.80381 1161.2501 54.314472 -0.14200293 0.6857015 0.7138969 0.70317835 0.48538846
4 0 1 2 3
4 3 2 4 5
4 5 4 6 7
4 7 6 8 9
4 9 8 10 11
4 11 10 12 13
4 13 12 14 15
4 15 14 16 17
4 17 16 18 19
4 19 18 20 21
4 21 20 22 23
4 23 22 24 25
4 25 24 26 27
4 27 26 28 29
4 29 28 30 31
4 31 30 32 33
4 33 32 34 35
4 35 34 36 37
4 37 36 38 39
4 39 38 40 41
4 41 40 42 43
4 43 42 44 45
4 45 44 46 47
4 47 46 48 49
4 49 48 50 51
4 51 50 52 53
4 53 52 54 55
4 55 54 56 57
4 57 56 58 59
4 59 58 60 61
32 62 63 64 65 66 67 68 69 70 71 72 73 74 75 76 77 78 79 80 81 82 83 84 85 86 87 88 89 90 91 92 93
4 61 60 94 95
4 95 94 96 97
32 98 99 100 101 102 103 104 105 106 107 108 109 110 111 112 113 114 115 116 117 118 119 120 121 122 123 124 125 126 127 128 129
